<?xml version="1.0" encoding="UTF-8" standalone="no"?>
<!-- Generated by SVGo -->

<svg
   xmlns:dc="http://purl.org/dc/elements/1.1/"
   xmlns:cc="http://creativecommons.org/ns#"
   xmlns:rdf="http://www.w3.org/1999/02/22-rdf-syntax-ns#"
   xmlns:svg="http://www.w3.org/2000/svg"
   xmlns="http://www.w3.org/2000/svg"
   xmlns:sodipodi="http://sodipodi.sourceforge.net/DTD/sodipodi-0.dtd"
   xmlns:inkscape="http://www.inkscape.org/namespaces/inkscape"
   width="151.352mm"
   height="94.202mm"
   viewBox="0.000 0.000 151.352 94.202"
   version="1.1"
   id="svg64"
   sodipodi:docname="agamem.svg"
   inkscape:version="0.92.2 (5c3e80d, 2017-08-06)">
  <metadata
     id="metadata70">
    <rdf:RDF>
      <cc:Work
         rdf:about="">
        <dc:format>image/svg+xml</dc:format>
        <dc:type
           rdf:resource="http://purl.org/dc/dcmitype/StillImage" />
      </cc:Work>
    </rdf:RDF>
  </metadata>
  <defs
     id="defs68">
    <inkscape:path-effect
       effect="bspline"
       id="path-effect1190"
       is_visible="true"
       weight="33.333333"
       steps="2"
       helper_size="0"
       apply_no_weight="true"
       apply_with_weight="true"
       only_selected="false" />
    <inkscape:path-effect
       effect="bspline"
       id="path-effect1186"
       is_visible="true"
       weight="33.333333"
       steps="2"
       helper_size="0"
       apply_no_weight="true"
       apply_with_weight="true"
       only_selected="false" />
    <inkscape:path-effect
       effect="bspline"
       id="path-effect1182"
       is_visible="true"
       weight="33.333333"
       steps="2"
       helper_size="0"
       apply_no_weight="true"
       apply_with_weight="true"
       only_selected="false" />
    <inkscape:path-effect
       effect="bspline"
       id="path-effect1178"
       is_visible="true"
       weight="33.333333"
       steps="2"
       helper_size="0"
       apply_no_weight="true"
       apply_with_weight="true"
       only_selected="false" />
    <inkscape:path-effect
       effect="bspline"
       id="path-effect1174"
       is_visible="true"
       weight="33.333333"
       steps="2"
       helper_size="0"
       apply_no_weight="true"
       apply_with_weight="true"
       only_selected="false" />
    <inkscape:path-effect
       effect="bspline"
       id="path-effect1170"
       is_visible="true"
       weight="33.333333"
       steps="2"
       helper_size="0"
       apply_no_weight="true"
       apply_with_weight="true"
       only_selected="false" />
    <inkscape:path-effect
       effect="bspline"
       id="path-effect1166"
       is_visible="true"
       weight="33.333333"
       steps="2"
       helper_size="0"
       apply_no_weight="true"
       apply_with_weight="true"
       only_selected="false" />
    <inkscape:path-effect
       effect="bspline"
       id="path-effect1111"
       is_visible="true"
       weight="33.333333"
       steps="2"
       helper_size="0"
       apply_no_weight="true"
       apply_with_weight="true"
       only_selected="false" />
    <inkscape:path-effect
       effect="spiro"
       id="path-effect1107"
       is_visible="true" />
  </defs>
  <sodipodi:namedview
     pagecolor="#ffffff"
     bordercolor="#666666"
     borderopacity="1"
     objecttolerance="10"
     gridtolerance="10"
     guidetolerance="10"
     inkscape:pageopacity="0"
     inkscape:pageshadow="2"
     inkscape:window-width="1920"
     inkscape:window-height="1028"
     id="namedview66"
     showgrid="false"
     inkscape:zoom="2"
     inkscape:cx="276.5608"
     inkscape:cy="168.13728"
     inkscape:window-x="1592"
     inkscape:window-y="-8"
     inkscape:window-maximized="1"
     inkscape:current-layer="layer1"
     inkscape:snap-object-midpoints="true"
     inkscape:object-paths="true"
     inkscape:snap-to-guides="true"
     inkscape:measure-start="557,193"
     inkscape:measure-end="543.763,138.513"
     showguides="false"
     inkscape:snap-nodes="true" />
  <g
     inkscape:groupmode="layer"
     id="layer4"
     inkscape:label="plate border">
    <path
       id="path1204"
       style="fill:none;stroke:#000000;stroke-width:0.26458332px;stroke-linecap:butt;stroke-linejoin:miter;stroke-opacity:1"
       d="m 136.86917,17.3653 -6.12727,26.513071 c -1.17256,4.832733 -1.51635,8.598864 1.15169,8.597028 l 6.52001,-0.132291 c 5.86628,-0.06681 5.41971,1.095958 5.58652,11.829311 v 14.187194 c -0.0656,6.710533 0.54127,9.579622 -7.09499,9.71645 L 26.48278,88.119002 C 22.081054,87.453448 20.948153,87.300995 18.096643,82.848213 L 8.7556494,67.391919 C 5.9240901,61.791965 5.1208811,57.089675 6.6870018,50.242755 L 13.896041,18.504923 C 16.779805,6.8614844 17.097542,7.256587 27.665047,7.0420033 L 129.69634,7.0238971 c 9.81712,0.2167014 8.54933,3.1819349 7.17283,10.3414029 z"
       inkscape:connector-curvature="0"
       sodipodi:nodetypes="ccccccccccccccc" />
  </g>
  <g
     inkscape:groupmode="layer"
     id="layer2"
     inkscape:label="switch holes"
     sodipodi:insensitive="true">
    <g
       id="g1068">
      <polygon
         id="polygon10"
         style="fill:none;stroke:#000000;stroke-width:0.05mm"
         points="20.25,69.676 20.25,72.776 21.05,72.776 21.05,78.576 20.25,78.576 20.25,81.676 21.05,81.676 21.05,82.676 35.051,82.676 35.051,81.676 35.85,81.676 35.85,78.576 35.051,78.576 35.051,72.776 35.85,72.776 35.85,69.676 35.051,69.676 35.051,68.676 21.05,68.676 21.05,69.676 " />
      <polygon
         id="polygon12"
         style="fill:none;stroke:#000000;stroke-width:0.05mm"
         points="39.301,69.676 39.301,72.776 40.1,72.776 40.1,78.576 39.301,78.576 39.301,81.676 40.1,81.676 40.1,82.676 54.1,82.676 54.1,81.676 54.9,81.676 54.9,78.576 54.1,78.576 54.1,72.776 54.9,72.776 54.9,69.676 54.1,69.676 54.1,68.676 40.1,68.676 40.1,69.676 " />
      <polygon
         id="polygon14"
         style="fill:none;stroke:#000000;stroke-width:0.05mm"
         points="58.35,69.676 58.35,72.776 59.15,72.776 59.15,78.576 58.35,78.576 58.35,81.676 59.15,81.676 59.15,82.676 73.15,82.676 73.15,81.676 73.95,81.676 73.95,78.576 73.15,78.576 73.15,72.776 73.95,72.776 73.95,69.676 73.15,69.676 73.15,68.676 59.15,68.676 59.15,69.676 " />
      <polygon
         id="polygon16"
         style="fill:none;stroke:#000000;stroke-width:0.05mm"
         points="77.4,69.676 77.4,72.776 78.2,72.776 78.2,78.576 77.4,78.576 77.4,81.676 78.2,81.676 78.2,82.676 92.2,82.676 92.2,81.676 93,81.676 93,78.576 92.2,78.576 92.2,72.776 93,72.776 93,69.676 92.2,69.676 92.2,68.676 78.2,68.676 78.2,69.676 " />
      <polygon
         id="polygon18"
         style="fill:none;stroke:#000000;stroke-width:0.05mm"
         points="101.213,69.676 101.213,72.776 102.013,72.776 102.013,78.576 101.213,78.576 101.213,81.676 102.013,81.676 102.013,82.676 116.013,82.676 116.013,81.676 116.813,81.676 116.813,78.576 116.013,78.576 116.013,72.776 116.813,72.776 116.813,69.676 116.013,69.676 116.013,68.676 102.013,68.676 102.013,69.676 " />
      <polygon
         id="polygon20"
         style="fill:none;stroke:#000000;stroke-width:0.05mm"
         points="125.826,63.913 125.826,77.913 126.826,77.913 126.826,78.713 129.926,78.713 129.926,77.913 135.726,77.913 135.726,78.713 138.826,78.713 138.826,77.913 139.826,77.913 139.826,63.913 138.826,63.913 138.826,63.113 135.726,63.113 135.726,63.913 129.926,63.913 129.926,63.113 126.826,63.113 126.826,63.913 " />
      <polygon
         id="polygon22"
         style="fill:none;stroke:#000000;stroke-width:0.05mm"
         points="10.725,50.626 10.725,53.726 11.525,53.726 11.525,59.526 10.725,59.526 10.725,62.626 11.525,62.626 11.525,63.626 25.526,63.626 25.526,62.626 26.326,62.626 26.326,59.526 25.526,59.526 25.526,53.726 26.326,53.726 26.326,50.626 25.526,50.626 25.526,49.626 11.525,49.626 11.525,50.626 " />
      <polygon
         id="polygon24"
         style="fill:none;stroke:#000000;stroke-width:0.05mm"
         points="29.776,50.626 29.776,53.726 30.576,53.726 30.576,59.526 29.776,59.526 29.776,62.626 30.576,62.626 30.576,63.626 44.576,63.626 44.576,62.626 45.376,62.626 45.376,59.526 44.576,59.526 44.576,53.726 45.376,53.726 45.376,50.626 44.576,50.626 44.576,49.626 30.576,49.626 30.576,50.626 " />
      <polygon
         id="polygon26"
         style="fill:none;stroke:#000000;stroke-width:0.05mm"
         points="48.826,50.626 48.826,53.726 49.626,53.726 49.626,59.526 48.826,59.526 48.826,62.626 49.626,62.626 49.626,63.626 63.626,63.626 63.626,62.626 64.426,62.626 64.426,59.526 63.626,59.526 63.626,53.726 64.426,53.726 64.426,50.626 63.626,50.626 63.626,49.626 49.626,49.626 49.626,50.626 " />
      <polygon
         id="polygon28"
         style="fill:none;stroke:#000000;stroke-width:0.05mm"
         points="67.876,50.626 67.876,53.726 68.676,53.726 68.676,59.526 67.876,59.526 67.876,62.626 68.676,62.626 68.676,63.626 82.676,63.626 82.676,62.626 83.476,62.626 83.476,59.526 82.676,59.526 82.676,53.726 83.476,53.726 83.476,50.626 82.676,50.626 82.676,49.626 68.676,49.626 68.676,50.626 " />
      <polygon
         id="polygon30"
         style="fill:none;stroke:#000000;stroke-width:0.05mm"
         points="86.926,50.626 86.926,53.726 87.726,53.726 87.726,59.526 86.926,59.526 86.926,62.626 87.726,62.626 87.726,63.626 101.726,63.626 101.726,62.626 102.525,62.626 102.525,59.526 101.726,59.526 101.726,53.726 102.525,53.726 102.525,50.626 101.726,50.626 101.726,49.626 87.726,49.626 87.726,50.626 " />
      <polygon
         id="polygon32"
         style="fill:none;stroke:#000000;stroke-width:0.05mm"
         points="105.976,50.626 105.976,53.726 106.775,53.726 106.775,59.526 105.976,59.526 105.976,62.626 106.775,62.626 106.775,63.626 120.775,63.626 120.775,62.626 121.575,62.626 121.575,59.526 120.775,59.526 120.775,53.726 121.575,53.726 121.575,50.626 120.775,50.626 120.775,49.626 106.775,49.626 106.775,50.626 " />
      <polygon
         id="polygon34"
         style="fill:none;stroke:#000000;stroke-width:0.05mm"
         points="15.488,31.576 15.488,34.676 16.287,34.676 16.287,40.476 15.488,40.476 15.488,43.576 16.287,43.576 16.287,44.576 30.288,44.576 30.288,43.576 31.088,43.576 31.088,40.476 30.288,40.476 30.288,34.676 31.088,34.676 31.088,31.576 30.288,31.576 30.288,30.576 16.287,30.576 16.287,31.576 " />
      <polygon
         id="polygon36"
         style="fill:none;stroke:#000000;stroke-width:0.05mm"
         points="34.538,31.576 34.538,34.676 35.338,34.676 35.338,40.476 34.538,40.476 34.538,43.576 35.338,43.576 35.338,44.576 49.338,44.576 49.338,43.576 50.138,43.576 50.138,40.476 49.338,40.476 49.338,34.676 50.138,34.676 50.138,31.576 49.338,31.576 49.338,30.576 35.338,30.576 35.338,31.576 " />
      <polygon
         id="polygon38"
         style="fill:none;stroke:#000000;stroke-width:0.05mm"
         points="53.588,31.576 53.588,34.676 54.388,34.676 54.388,40.476 53.588,40.476 53.588,43.576 54.388,43.576 54.388,44.576 68.388,44.576 68.388,43.576 69.188,43.576 69.188,40.476 68.388,40.476 68.388,34.676 69.188,34.676 69.188,31.576 68.388,31.576 68.388,30.576 54.388,30.576 54.388,31.576 " />
      <polygon
         id="polygon40"
         style="fill:none;stroke:#000000;stroke-width:0.05mm"
         points="72.638,31.576 72.638,34.676 73.438,34.676 73.438,40.476 72.638,40.476 72.638,43.576 73.438,43.576 73.438,44.576 87.438,44.576 87.438,43.576 88.238,43.576 88.238,40.476 87.438,40.476 87.438,34.676 88.238,34.676 88.238,31.576 87.438,31.576 87.438,30.576 73.438,30.576 73.438,31.576 " />
      <polygon
         id="polygon42"
         style="fill:none;stroke:#000000;stroke-width:0.05mm"
         points="91.688,31.576 91.688,34.676 92.488,34.676 92.488,40.476 91.688,40.476 91.688,43.576 92.488,43.576 92.488,44.576 106.488,44.576 106.488,43.576 107.288,43.576 107.288,40.476 106.488,40.476 106.488,34.676 107.288,34.676 107.288,31.576 106.488,31.576 106.488,30.576 92.488,30.576 92.488,31.576 " />
      <polygon
         id="polygon44"
         style="fill:none;stroke:#000000;stroke-width:0.05mm"
         points="110.738,31.576 110.738,34.676 111.538,34.676 111.538,40.476 110.738,40.476 110.738,43.576 111.538,43.576 111.538,44.576 125.538,44.576 125.538,43.576 126.338,43.576 126.338,40.476 125.538,40.476 125.538,34.676 126.338,34.676 126.338,31.576 125.538,31.576 125.538,30.576 111.538,30.576 111.538,31.576 " />
      <polygon
         id="polygon46"
         style="fill:none;stroke:#000000;stroke-width:0.05mm"
         points="20.251,12.525 20.251,15.625 21.051,15.625 21.051,21.425 20.251,21.425 20.251,24.526 21.051,24.526 21.051,25.526 35.051,25.526 35.051,24.526 35.851,24.526 35.851,21.425 35.051,21.425 35.051,15.625 35.851,15.625 35.851,12.525 35.051,12.525 35.051,11.525 21.051,11.525 21.051,12.525 " />
      <polygon
         id="polygon48"
         style="fill:none;stroke:#000000;stroke-width:0.05mm"
         points="39.301,12.525 39.301,15.625 40.101,15.625 40.101,21.425 39.301,21.425 39.301,24.526 40.101,24.526 40.101,25.526 54.101,25.526 54.101,24.526 54.901,24.526 54.901,21.425 54.101,21.425 54.101,15.625 54.901,15.625 54.901,12.525 54.101,12.525 54.101,11.525 40.101,11.525 40.101,12.525 " />
      <polygon
         id="polygon50"
         style="fill:none;stroke:#000000;stroke-width:0.05mm"
         points="58.351,12.525 58.351,15.625 59.151,15.625 59.151,21.425 58.351,21.425 58.351,24.526 59.151,24.526 59.151,25.526 73.151,25.526 73.151,24.526 73.951,24.526 73.951,21.425 73.151,21.425 73.151,15.625 73.951,15.625 73.951,12.525 73.151,12.525 73.151,11.525 59.151,11.525 59.151,12.525 " />
      <polygon
         id="polygon52"
         style="fill:none;stroke:#000000;stroke-width:0.05mm"
         points="77.401,12.525 77.401,15.625 78.201,15.625 78.201,21.425 77.401,21.425 77.401,24.526 78.201,24.526 78.201,25.526 92.201,25.526 92.201,24.526 93.001,24.526 93.001,21.425 92.201,21.425 92.201,15.625 93.001,15.625 93.001,12.525 92.201,12.525 92.201,11.525 78.201,11.525 78.201,12.525 " />
      <polygon
         id="polygon54"
         style="fill:none;stroke:#000000;stroke-width:0.05mm"
         points="96.451,12.525 96.451,15.625 97.251,15.625 97.251,21.425 96.451,21.425 96.451,24.526 97.251,24.526 97.251,25.526 111.251,25.526 111.251,24.526 112.051,24.526 112.051,21.425 111.251,21.425 111.251,15.625 112.051,15.625 112.051,12.525 111.251,12.525 111.251,11.525 97.251,11.525 97.251,12.525 " />
      <polygon
         id="polygon56"
         style="fill:none;stroke:#000000;stroke-width:0.05mm"
         points="115.501,12.525 115.501,15.625 116.301,15.625 116.301,21.425 115.501,21.425 115.501,24.526 116.301,24.526 116.301,25.526 130.301,25.526 130.301,24.526 131.101,24.526 131.101,21.425 130.301,21.425 130.301,15.625 131.101,15.625 131.101,12.525 130.301,12.525 130.301,11.525 116.301,11.525 116.301,12.525 " />
    </g>
  </g>
  <g
     inkscape:groupmode="layer"
     id="layer1"
     inkscape:label="circles">
    <circle
       style="fill:none;fill-opacity:1;stroke:#0000ff;stroke-width:0.07652246;stroke-miterlimit:4;stroke-dasharray:none;stroke-opacity:1;paint-order:normal"
       id="path1905"
       cx="18.777082"
       cy="10.072838"
       r="1.0617387" />
    <circle
       style="fill:none;fill-opacity:1;stroke:#0000ff;stroke-width:0.07652246;stroke-miterlimit:4;stroke-dasharray:none;stroke-opacity:1;paint-order:normal"
       id="path1905-2"
       cx="7.6729159"
       cy="56.895752"
       r="1.0617387" />
    <circle
       style="fill:none;fill-opacity:1;stroke:#0000ff;stroke-width:0.07652246;stroke-miterlimit:4;stroke-dasharray:none;stroke-opacity:1;paint-order:normal"
       id="path1905-9"
       cx="23.415625"
       cy="85.206169"
       r="1.0617387" />
    <circle
       style="fill:none;fill-opacity:1;stroke:#0000ff;stroke-width:0.07652246;stroke-miterlimit:4;stroke-dasharray:none;stroke-opacity:1;paint-order:normal"
       id="path1905-98"
       cx="140.62604"
       cy="84.941582"
       r="1.0617387" />
    <circle
       style="fill:none;fill-opacity:1;stroke:#0000ff;stroke-width:0.07652246;stroke-miterlimit:4;stroke-dasharray:none;stroke-opacity:1;paint-order:normal"
       id="path1905-1"
       cx="141.28749"
       cy="55.043667"
       r="1.0617387" />
    <circle
       style="fill:none;fill-opacity:1;stroke:#0000ff;stroke-width:0.07652246;stroke-miterlimit:4;stroke-dasharray:none;stroke-opacity:1;paint-order:normal"
       id="path1905-6"
       cx="134.9375"
       cy="10.990543"
       r="1.0617387" />
    <circle
       style="fill:none;fill-opacity:1;stroke:#0000ff;stroke-width:0.07652246;stroke-miterlimit:4;stroke-dasharray:none;stroke-opacity:1;paint-order:normal"
       id="path1905-92"
       cx="77.787498"
       cy="86.13221"
       r="1.0617387" />
    <circle
       style="fill:none;fill-opacity:1;stroke:#0000ff;stroke-width:0.07652246;stroke-miterlimit:4;stroke-dasharray:none;stroke-opacity:1;paint-order:normal"
       id="path1905-5"
       cx="75.803123"
       cy="8.8738794"
       r="1.0617387" />
  </g>
</svg>
