<?xml version="1.0" encoding="UTF-8" standalone="no"?>
<!-- Generated by SVGo -->

<svg
   xmlns:dc="http://purl.org/dc/elements/1.1/"
   xmlns:cc="http://creativecommons.org/ns#"
   xmlns:rdf="http://www.w3.org/1999/02/22-rdf-syntax-ns#"
   xmlns:svg="http://www.w3.org/2000/svg"
   xmlns="http://www.w3.org/2000/svg"
   xmlns:sodipodi="http://sodipodi.sourceforge.net/DTD/sodipodi-0.dtd"
   xmlns:inkscape="http://www.inkscape.org/namespaces/inkscape"
   width="151.352mm"
   height="94.202mm"
   viewBox="0.000 0.000 151.352 94.202"
   version="1.1"
   id="svg64"
   sodipodi:docname="e3d8f53d3b2c790b6e8bca361d8af0b7f6935e9e_switch.svg"
   inkscape:version="0.92.2 (5c3e80d, 2017-08-06)">
  <metadata
     id="metadata70">
    <rdf:RDF>
      <cc:Work
         rdf:about="">
        <dc:format>image/svg+xml</dc:format>
        <dc:type
           rdf:resource="http://purl.org/dc/dcmitype/StillImage" />
      </cc:Work>
    </rdf:RDF>
  </metadata>
  <defs
     id="defs68" />
  <sodipodi:namedview
     pagecolor="#ffffff"
     bordercolor="#666666"
     borderopacity="1"
     objecttolerance="10"
     gridtolerance="10"
     guidetolerance="10"
     inkscape:pageopacity="0"
     inkscape:pageshadow="2"
     inkscape:window-width="1920"
     inkscape:window-height="1028"
     id="namedview66"
     showgrid="false"
     inkscape:zoom="1.582457"
     inkscape:cx="358.53153"
     inkscape:cy="159.89154"
     inkscape:window-x="1592"
     inkscape:window-y="-8"
     inkscape:window-maximized="1"
     inkscape:current-layer="svg64"
     inkscape:snap-object-midpoints="true" />
  <polygon
     points="143.352,5.001 143.587,5.010 143.821,5.037 144.052,5.083 144.279,5.147 144.500,5.229 144.713,5.327 144.919,5.443 145.115,5.573 145.300,5.719 145.473,5.879 145.633,6.052 145.779,6.237 145.909,6.433 146.025,6.639 146.123,6.852 146.205,7.073 146.269,7.300 146.315,7.531 146.342,7.765 146.352,8.001 146.352,86.202 146.342,86.437 146.315,86.671 146.269,86.902 146.205,87.129 146.123,87.350 146.025,87.563 145.909,87.769 145.779,87.965 145.633,88.150 145.473,88.323 145.300,88.483 145.115,88.629 144.919,88.759 144.713,88.875 144.500,88.973 144.279,89.055 144.052,89.119 143.821,89.165 143.587,89.192 143.352,89.202 8.001,89.202 7.765,89.192 7.531,89.165 7.300,89.119 7.073,89.055 6.852,88.973 6.639,88.875 6.433,88.759 6.237,88.629 6.052,88.483 5.879,88.323 5.719,88.150 5.573,87.965 5.443,87.769 5.327,87.563 5.229,87.350 5.147,87.129 5.083,86.902 5.037,86.671 5.010,86.437 5.000,86.202 5.001,8.001 5.010,7.765 5.037,7.531 5.083,7.300 5.147,7.073 5.229,6.852 5.327,6.639 5.443,6.433 5.573,6.237 5.719,6.052 5.879,5.879 6.052,5.719 6.237,5.573 6.433,5.443 6.639,5.327 6.852,5.229 7.073,5.147 7.300,5.083 7.531,5.037 7.765,5.010 8.001,5.000"
     style="fill:none;stroke-width:0.050000mm;stroke:black"
     id="polygon2" />
  <polygon
     points="144.012,86.155 143.705,86.312 143.462,86.555 143.305,86.862 143.252,87.202 143.305,87.541 143.462,87.848 143.705,88.091 144.012,88.248 144.352,88.302 144.691,88.248 144.998,88.091 145.241,87.848 145.398,87.541 145.452,87.202 145.398,86.862 145.241,86.555 144.998,86.312 144.691,86.155 144.352,86.102"
     style="fill:none;stroke-width:0.050000mm;stroke:black"
     id="polygon4" />
  <polygon
     points="75.336,86.155 75.029,86.312 74.786,86.555 74.630,86.862 74.576,87.202 74.630,87.541 74.786,87.848 75.029,88.091 75.336,88.248 75.676,88.302 76.016,88.248 76.323,88.091 76.566,87.848 76.722,87.541 76.776,87.202 76.722,86.862 76.566,86.555 76.323,86.312 76.016,86.155 75.676,86.102"
     style="fill:none;stroke-width:0.050000mm;stroke:black"
     id="polygon6" />
  <polygon
     points="6.661,86.155 6.354,86.312 6.111,86.555 5.954,86.862 5.901,87.202 5.954,87.541 6.111,87.848 6.354,88.091 6.661,88.248 7.001,88.302 7.340,88.248 7.647,88.091 7.890,87.848 8.046,87.541 8.101,87.202 8.046,86.862 7.890,86.555 7.647,86.312 7.340,86.155 7.001,86.102"
     style="fill:none;stroke-width:0.050000mm;stroke:black"
     id="polygon8" />
  <polygon
     points="21.050,68.676 21.050,69.676 20.250,69.676 20.250,72.776 21.050,72.776 21.050,78.576 20.250,78.576 20.250,81.676 21.050,81.676 21.050,82.676 35.051,82.676 35.051,81.676 35.850,81.676 35.850,78.576 35.051,78.576 35.051,72.776 35.850,72.776 35.850,69.676 35.051,69.676 35.051,68.676"
     style="fill:none;stroke-width:0.050000mm;stroke:black"
     id="polygon10" />
  <polygon
     points="40.100,68.676 40.100,69.676 39.301,69.676 39.301,72.776 40.100,72.776 40.100,78.576 39.301,78.576 39.301,81.676 40.100,81.676 40.100,82.676 54.100,82.676 54.100,81.676 54.900,81.676 54.900,78.576 54.100,78.576 54.100,72.776 54.900,72.776 54.900,69.676 54.100,69.676 54.100,68.676"
     style="fill:none;stroke-width:0.050000mm;stroke:black"
     id="polygon12" />
  <polygon
     points="59.150,68.676 59.150,69.676 58.350,69.676 58.350,72.776 59.150,72.776 59.150,78.576 58.350,78.576 58.350,81.676 59.150,81.676 59.150,82.676 73.150,82.676 73.150,81.676 73.950,81.676 73.950,78.576 73.150,78.576 73.150,72.776 73.950,72.776 73.950,69.676 73.150,69.676 73.150,68.676"
     style="fill:none;stroke-width:0.050000mm;stroke:black"
     id="polygon14" />
  <polygon
     points="78.200,68.676 78.200,69.676 77.400,69.676 77.400,72.776 78.200,72.776 78.200,78.576 77.400,78.576 77.400,81.676 78.200,81.676 78.200,82.676 92.200,82.676 92.200,81.676 93.000,81.676 93.000,78.576 92.200,78.576 92.200,72.776 93.000,72.776 93.000,69.676 92.200,69.676 92.200,68.676"
     style="fill:none;stroke-width:0.050000mm;stroke:black"
     id="polygon16" />
  <polygon
     points="102.013,68.676 102.013,69.676 101.213,69.676 101.213,72.776 102.013,72.776 102.013,78.576 101.213,78.576 101.213,81.676 102.013,81.676 102.013,82.676 116.013,82.676 116.013,81.676 116.813,81.676 116.813,78.576 116.013,78.576 116.013,72.776 116.813,72.776 116.813,69.676 116.013,69.676 116.013,68.676"
     style="fill:none;stroke-width:0.050000mm;stroke:black"
     id="polygon18" />
  <polygon
     points="126.826,63.113 126.826,63.913 125.826,63.913 125.826,77.913 126.826,77.913 126.826,78.713 129.926,78.713 129.926,77.913 135.726,77.913 135.726,78.713 138.826,78.713 138.826,77.913 139.826,77.913 139.826,63.913 138.826,63.913 138.826,63.113 135.726,63.113 135.726,63.913 129.926,63.913 129.926,63.113"
     style="fill:none;stroke-width:0.050000mm;stroke:black"
     id="polygon20" />
  <polygon
     points="11.525,49.626 11.525,50.626 10.725,50.626 10.725,53.726 11.525,53.726 11.525,59.526 10.725,59.526 10.725,62.626 11.525,62.626 11.525,63.626 25.526,63.626 25.526,62.626 26.326,62.626 26.326,59.526 25.526,59.526 25.526,53.726 26.326,53.726 26.326,50.626 25.526,50.626 25.526,49.626"
     style="fill:none;stroke-width:0.050000mm;stroke:black"
     id="polygon22" />
  <polygon
     points="30.576,49.626 30.576,50.626 29.776,50.626 29.776,53.726 30.576,53.726 30.576,59.526 29.776,59.526 29.776,62.626 30.576,62.626 30.576,63.626 44.576,63.626 44.576,62.626 45.376,62.626 45.376,59.526 44.576,59.526 44.576,53.726 45.376,53.726 45.376,50.626 44.576,50.626 44.576,49.626"
     style="fill:none;stroke-width:0.050000mm;stroke:black"
     id="polygon24" />
  <polygon
     points="49.626,49.626 49.626,50.626 48.826,50.626 48.826,53.726 49.626,53.726 49.626,59.526 48.826,59.526 48.826,62.626 49.626,62.626 49.626,63.626 63.626,63.626 63.626,62.626 64.426,62.626 64.426,59.526 63.626,59.526 63.626,53.726 64.426,53.726 64.426,50.626 63.626,50.626 63.626,49.626"
     style="fill:none;stroke-width:0.050000mm;stroke:black"
     id="polygon26" />
  <polygon
     points="68.676,49.626 68.676,50.626 67.876,50.626 67.876,53.726 68.676,53.726 68.676,59.526 67.876,59.526 67.876,62.626 68.676,62.626 68.676,63.626 82.676,63.626 82.676,62.626 83.476,62.626 83.476,59.526 82.676,59.526 82.676,53.726 83.476,53.726 83.476,50.626 82.676,50.626 82.676,49.626"
     style="fill:none;stroke-width:0.050000mm;stroke:black"
     id="polygon28" />
  <polygon
     points="87.726,49.626 87.726,50.626 86.926,50.626 86.926,53.726 87.726,53.726 87.726,59.526 86.926,59.526 86.926,62.626 87.726,62.626 87.726,63.626 101.726,63.626 101.726,62.626 102.525,62.626 102.525,59.526 101.726,59.526 101.726,53.726 102.525,53.726 102.525,50.626 101.726,50.626 101.726,49.626"
     style="fill:none;stroke-width:0.050000mm;stroke:black"
     id="polygon30" />
  <polygon
     points="106.775,49.626 106.775,50.626 105.976,50.626 105.976,53.726 106.775,53.726 106.775,59.526 105.976,59.526 105.976,62.626 106.775,62.626 106.775,63.626 120.775,63.626 120.775,62.626 121.575,62.626 121.575,59.526 120.775,59.526 120.775,53.726 121.575,53.726 121.575,50.626 120.775,50.626 120.775,49.626"
     style="fill:none;stroke-width:0.050000mm;stroke:black"
     id="polygon32" />
  <polygon
     points="16.287,30.576 16.287,31.576 15.488,31.576 15.488,34.676 16.287,34.676 16.287,40.476 15.488,40.476 15.488,43.576 16.287,43.576 16.287,44.576 30.288,44.576 30.288,43.576 31.088,43.576 31.088,40.476 30.288,40.476 30.288,34.676 31.088,34.676 31.088,31.576 30.288,31.576 30.288,30.576"
     style="fill:none;stroke-width:0.050000mm;stroke:black"
     id="polygon34" />
  <polygon
     points="35.338,30.576 35.338,31.576 34.538,31.576 34.538,34.676 35.338,34.676 35.338,40.476 34.538,40.476 34.538,43.576 35.338,43.576 35.338,44.576 49.338,44.576 49.338,43.576 50.138,43.576 50.138,40.476 49.338,40.476 49.338,34.676 50.138,34.676 50.138,31.576 49.338,31.576 49.338,30.576"
     style="fill:none;stroke-width:0.050000mm;stroke:black"
     id="polygon36" />
  <polygon
     points="54.388,30.576 54.388,31.576 53.588,31.576 53.588,34.676 54.388,34.676 54.388,40.476 53.588,40.476 53.588,43.576 54.388,43.576 54.388,44.576 68.388,44.576 68.388,43.576 69.188,43.576 69.188,40.476 68.388,40.476 68.388,34.676 69.188,34.676 69.188,31.576 68.388,31.576 68.388,30.576"
     style="fill:none;stroke-width:0.050000mm;stroke:black"
     id="polygon38" />
  <polygon
     points="73.438,30.576 73.438,31.576 72.638,31.576 72.638,34.676 73.438,34.676 73.438,40.476 72.638,40.476 72.638,43.576 73.438,43.576 73.438,44.576 87.438,44.576 87.438,43.576 88.238,43.576 88.238,40.476 87.438,40.476 87.438,34.676 88.238,34.676 88.238,31.576 87.438,31.576 87.438,30.576"
     style="fill:none;stroke-width:0.050000mm;stroke:black"
     id="polygon40" />
  <polygon
     points="92.488,30.576 92.488,31.576 91.688,31.576 91.688,34.676 92.488,34.676 92.488,40.476 91.688,40.476 91.688,43.576 92.488,43.576 92.488,44.576 106.488,44.576 106.488,43.576 107.288,43.576 107.288,40.476 106.488,40.476 106.488,34.676 107.288,34.676 107.288,31.576 106.488,31.576 106.488,30.576"
     style="fill:none;stroke-width:0.050000mm;stroke:black"
     id="polygon42" />
  <polygon
     points="111.538,30.576 111.538,31.576 110.738,31.576 110.738,34.676 111.538,34.676 111.538,40.476 110.738,40.476 110.738,43.576 111.538,43.576 111.538,44.576 125.538,44.576 125.538,43.576 126.338,43.576 126.338,40.476 125.538,40.476 125.538,34.676 126.338,34.676 126.338,31.576 125.538,31.576 125.538,30.576"
     style="fill:none;stroke-width:0.050000mm;stroke:black"
     id="polygon44" />
  <polygon
     points="21.051,11.525 21.051,12.525 20.251,12.525 20.251,15.625 21.051,15.625 21.051,21.425 20.251,21.425 20.251,24.526 21.051,24.526 21.051,25.526 35.051,25.526 35.051,24.526 35.851,24.526 35.851,21.425 35.051,21.425 35.051,15.625 35.851,15.625 35.851,12.525 35.051,12.525 35.051,11.525"
     style="fill:none;stroke-width:0.050000mm;stroke:black"
     id="polygon46" />
  <polygon
     points="40.101,11.525 40.101,12.525 39.301,12.525 39.301,15.625 40.101,15.625 40.101,21.425 39.301,21.425 39.301,24.526 40.101,24.526 40.101,25.526 54.101,25.526 54.101,24.526 54.901,24.526 54.901,21.425 54.101,21.425 54.101,15.625 54.901,15.625 54.901,12.525 54.101,12.525 54.101,11.525"
     style="fill:none;stroke-width:0.050000mm;stroke:black"
     id="polygon48" />
  <polygon
     points="59.151,11.525 59.151,12.525 58.351,12.525 58.351,15.625 59.151,15.625 59.151,21.425 58.351,21.425 58.351,24.526 59.151,24.526 59.151,25.526 73.151,25.526 73.151,24.526 73.951,24.526 73.951,21.425 73.151,21.425 73.151,15.625 73.951,15.625 73.951,12.525 73.151,12.525 73.151,11.525"
     style="fill:none;stroke-width:0.050000mm;stroke:black"
     id="polygon50" />
  <polygon
     points="78.201,11.525 78.201,12.525 77.401,12.525 77.401,15.625 78.201,15.625 78.201,21.425 77.401,21.425 77.401,24.526 78.201,24.526 78.201,25.526 92.201,25.526 92.201,24.526 93.001,24.526 93.001,21.425 92.201,21.425 92.201,15.625 93.001,15.625 93.001,12.525 92.201,12.525 92.201,11.525"
     style="fill:none;stroke-width:0.050000mm;stroke:black"
     id="polygon52" />
  <polygon
     points="97.251,11.525 97.251,12.525 96.451,12.525 96.451,15.625 97.251,15.625 97.251,21.425 96.451,21.425 96.451,24.526 97.251,24.526 97.251,25.526 111.251,25.526 111.251,24.526 112.051,24.526 112.051,21.425 111.251,21.425 111.251,15.625 112.051,15.625 112.051,12.525 111.251,12.525 111.251,11.525"
     style="fill:none;stroke-width:0.050000mm;stroke:black"
     id="polygon54" />
  <polygon
     points="116.301,11.525 116.301,12.525 115.501,12.525 115.501,15.625 116.301,15.625 116.301,21.425 115.501,21.425 115.501,24.526 116.301,24.526 116.301,25.526 130.301,25.526 130.301,24.526 131.101,24.526 131.101,21.425 130.301,21.425 130.301,15.625 131.101,15.625 131.101,12.525 130.301,12.525 130.301,11.525"
     style="fill:none;stroke-width:0.050000mm;stroke:black"
     id="polygon56" />
  <polygon
     points="75.336,5.954 75.029,6.111 74.786,6.354 74.630,6.661 74.576,7.001 74.630,7.340 74.786,7.647 75.029,7.890 75.336,8.046 75.676,8.101 76.016,8.046 76.323,7.890 76.566,7.647 76.722,7.340 76.776,7.001 76.722,6.661 76.566,6.354 76.323,6.111 76.016,5.954 75.676,5.901"
     style="fill:none;stroke-width:0.050000mm;stroke:black"
     id="polygon58" />
  <polygon
     points="144.012,5.954 143.705,6.111 143.462,6.354 143.305,6.661 143.252,7.001 143.305,7.340 143.462,7.647 143.705,7.890 144.012,8.046 144.352,8.101 144.691,8.046 144.998,7.890 145.241,7.647 145.398,7.340 145.452,7.001 145.398,6.661 145.241,6.354 144.998,6.111 144.691,5.954 144.352,5.901"
     style="fill:none;stroke-width:0.050000mm;stroke:black"
     id="polygon60" />
  <polygon
     points="6.661,5.954 6.354,6.111 6.111,6.354 5.954,6.661 5.901,7.001 5.954,7.340 6.111,7.647 6.354,7.890 6.661,8.046 7.001,8.101 7.340,8.046 7.647,7.890 7.890,7.647 8.046,7.340 8.101,7.001 8.046,6.661 7.890,6.354 7.647,6.111 7.340,5.954 7.001,5.901"
     style="fill:none;stroke-width:0.050000mm;stroke:black"
     id="polygon62" />
</svg>
