  0
SECTION
  2
HEADER
  9
$ACADVER
  1
AC1009
  9
$EXTMIN
 10
0.0
 20
0.0
 30
0.0
  9
$EXTMAX
 10
1000.0
 20
1000.0
 30
0.0
  9
$FILLMODE
 70
 0
  9
$SPLFRAME
 70
 1
  0
ENDSEC
  0
SECTION
  2
TABLES
  0
TABLE
  2
LAYER
 70
1
  0
LAYER
  2
0
 70
     0
 62
     7
  6
CONTINUOUS
  0
ENDTAB
  0
ENDSEC
  0
SECTION
  2
ENTITIES
  0
LINE
  8
0
 62
     0
 10
138.446
 20
84.2793
 30
0.0
 11
138.68
 21
84.2712
 31
0.0
  0
LINE
  8
0
 62
     0
 10
138.68
 20
84.2712
 30
0.0
 11
138.914
 21
84.2437
 31
0.0
  0
LINE
  8
0
 62
     0
 10
138.914
 20
84.2437
 30
0.0
 11
139.146
 21
84.1982
 31
0.0
  0
LINE
  8
0
 62
     0
 10
139.146
 20
84.1982
 30
0.0
 11
139.373
 21
84.1333
 31
0.0
  0
LINE
  8
0
 62
     0
 10
139.373
 20
84.1333
 30
0.0
 11
139.594
 21
84.0521
 31
0.0
  0
LINE
  8
0
 62
     0
 10
139.594
 20
84.0521
 30
0.0
 11
139.806
 21
83.9541
 31
0.0
  0
LINE
  8
0
 62
     0
 10
139.806
 20
83.9541
 30
0.0
 11
140.013
 21
83.8369
 31
0.0
  0
LINE
  8
0
 62
     0
 10
140.013
 20
83.8369
 30
0.0
 11
140.208
 21
83.7075
 31
0.0
  0
LINE
  8
0
 62
     0
 10
140.208
 20
83.7075
 30
0.0
 11
140.393
 21
83.5614
 31
0.0
  0
LINE
  8
0
 62
     0
 10
140.393
 20
83.5614
 30
0.0
 11
140.567
 21
83.4016
 31
0.0
  0
LINE
  8
0
 62
     0
 10
140.567
 20
83.4016
 30
0.0
 11
140.727
 21
83.2294
 31
0.0
  0
LINE
  8
0
 62
     0
 10
140.727
 20
83.2294
 30
0.0
 11
140.873
 21
83.0432
 31
0.0
  0
LINE
  8
0
 62
     0
 10
140.873
 20
83.0432
 30
0.0
 11
141.002
 21
82.8477
 31
0.0
  0
LINE
  8
0
 62
     0
 10
141.002
 20
82.8477
 30
0.0
 11
141.119
 21
82.6424
 31
0.0
  0
LINE
  8
0
 62
     0
 10
141.119
 20
82.6424
 30
0.0
 11
141.217
 21
82.4286
 31
0.0
  0
LINE
  8
0
 62
     0
 10
141.217
 20
82.4286
 30
0.0
 11
141.298
 21
82.2082
 31
0.0
  0
LINE
  8
0
 62
     0
 10
141.298
 20
82.2082
 30
0.0
 11
141.363
 21
81.981
 31
0.0
  0
LINE
  8
0
 62
     0
 10
141.363
 20
81.981
 30
0.0
 11
141.409
 21
81.7492
 31
0.0
  0
LINE
  8
0
 62
     0
 10
141.409
 20
81.7492
 30
0.0
 11
141.436
 21
81.5149
 31
0.0
  0
LINE
  8
0
 62
     0
 10
141.436
 20
81.5149
 30
0.0
 11
141.446
 21
81.2793
 31
0.0
  0
LINE
  8
0
 62
     0
 10
141.446
 20
81.2793
 30
0.0
 11
141.446
 21
3.07854
 31
0.0
  0
LINE
  8
0
 62
     0
 10
141.446
 20
3.07854
 30
0.0
 11
141.436
 21
2.84427
 31
0.0
  0
LINE
  8
0
 62
     0
 10
141.436
 20
2.84427
 30
0.0
 11
141.409
 21
2.61001
 31
0.0
  0
LINE
  8
0
 62
     0
 10
141.409
 20
2.61001
 30
0.0
 11
141.363
 21
2.37849
 31
0.0
  0
LINE
  8
0
 62
     0
 10
141.363
 20
2.37849
 30
0.0
 11
141.298
 21
2.15112
 31
0.0
  0
LINE
  8
0
 62
     0
 10
141.298
 20
2.15112
 30
0.0
 11
141.217
 21
1.93063
 31
0.0
  0
LINE
  8
0
 62
     0
 10
141.217
 20
1.93063
 30
0.0
 11
141.119
 21
1.71841
 31
0.0
  0
LINE
  8
0
 62
     0
 10
141.119
 20
1.71841
 30
0.0
 11
141.002
 21
1.51171
 31
0.0
  0
LINE
  8
0
 62
     0
 10
141.002
 20
1.51171
 30
0.0
 11
140.873
 21
1.31603
 31
0.0
  0
LINE
  8
0
 62
     0
 10
140.873
 20
1.31603
 30
0.0
 11
140.727
 21
1.13137
 31
0.0
  0
LINE
  8
0
 62
     0
 10
140.727
 20
1.13137
 30
0.0
 11
140.567
 21
0.957735
 31
0.0
  0
LINE
  8
0
 62
     0
 10
140.567
 20
0.957735
 30
0.0
 11
140.393
 21
0.797885
 31
0.0
  0
LINE
  8
0
 62
     0
 10
140.393
 20
0.797885
 30
0.0
 11
140.208
 21
0.651813
 31
0.0
  0
LINE
  8
0
 62
     0
 10
140.208
 20
0.651813
 30
0.0
 11
140.013
 21
0.522277
 31
0.0
  0
LINE
  8
0
 62
     0
 10
140.013
 20
0.522277
 30
0.0
 11
139.806
 21
0.405144
 31
0.0
  0
LINE
  8
0
 62
     0
 10
139.806
 20
0.405144
 30
0.0
 11
139.594
 21
0.307303
 31
0.0
  0
LINE
  8
0
 62
     0
 10
139.594
 20
0.307303
 30
0.0
 11
139.373
 21
0.225998
 31
0.0
  0
LINE
  8
0
 62
     0
 10
139.373
 20
0.225998
 30
0.0
 11
139.146
 21
0.16123
 31
0.0
  0
LINE
  8
0
 62
     0
 10
139.146
 20
0.16123
 30
0.0
 11
138.914
 21
0.115755
 31
0.0
  0
LINE
  8
0
 62
     0
 10
138.914
 20
0.115755
 30
0.0
 11
138.68
 21
0.0881944
 31
0.0
  0
LINE
  8
0
 62
     0
 10
138.68
 20
0.0881944
 30
0.0
 11
138.446
 21
0.0785481
 31
0.0
  0
LINE
  8
0
 62
     0
 10
138.446
 20
0.0785481
 30
0.0
 11
3.09507
 21
0.0785481
 31
0.0
  0
LINE
  8
0
 62
     0
 10
3.09507
 20
0.0785481
 30
0.0
 11
2.85943
 21
0.0881944
 31
0.0
  0
LINE
  8
0
 62
     0
 10
2.85943
 20
0.0881944
 30
0.0
 11
2.62516
 21
0.115755
 31
0.0
  0
LINE
  8
0
 62
     0
 10
2.62516
 20
0.115755
 30
0.0
 11
2.39365
 21
0.16123
 31
0.0
  0
LINE
  8
0
 62
     0
 10
2.39365
 20
0.16123
 30
0.0
 11
2.16628
 21
0.225998
 31
0.0
  0
LINE
  8
0
 62
     0
 10
2.16628
 20
0.225998
 30
0.0
 11
1.94579
 21
0.307303
 31
0.0
  0
LINE
  8
0
 62
     0
 10
1.94579
 20
0.307303
 30
0.0
 11
1.7322
 21
0.405144
 31
0.0
  0
LINE
  8
0
 62
     0
 10
1.7322
 20
0.405144
 30
0.0
 11
1.52687
 21
0.522277
 31
0.0
  0
LINE
  8
0
 62
     0
 10
1.52687
 20
0.522277
 30
0.0
 11
1.33119
 21
0.651813
 31
0.0
  0
LINE
  8
0
 62
     0
 10
1.33119
 20
0.651813
 30
0.0
 11
1.14515
 21
0.797885
 31
0.0
  0
LINE
  8
0
 62
     0
 10
1.14515
 20
0.797885
 30
0.0
 11
0.972894
 21
0.957735
 31
0.0
  0
LINE
  8
0
 62
     0
 10
0.972894
 20
0.957735
 30
0.0
 11
0.813043
 21
1.13137
 31
0.0
  0
LINE
  8
0
 62
     0
 10
0.813043
 20
1.13137
 30
0.0
 11
0.666972
 21
1.31603
 31
0.0
  0
LINE
  8
0
 62
     0
 10
0.666972
 20
1.31603
 30
0.0
 11
0.537436
 21
1.51171
 31
0.0
  0
LINE
  8
0
 62
     0
 10
0.537436
 20
1.51171
 30
0.0
 11
0.420303
 21
1.71841
 31
0.0
  0
LINE
  8
0
 62
     0
 10
0.420303
 20
1.71841
 30
0.0
 11
0.322461
 21
1.93063
 31
0.0
  0
LINE
  8
0
 62
     0
 10
0.322461
 20
1.93063
 30
0.0
 11
0.241157
 21
2.15112
 31
0.0
  0
LINE
  8
0
 62
     0
 10
0.241157
 20
2.15112
 30
0.0
 11
0.176389
 21
2.37849
 31
0.0
  0
LINE
  8
0
 62
     0
 10
0.176389
 20
2.37849
 30
0.0
 11
0.130914
 21
2.61001
 31
0.0
  0
LINE
  8
0
 62
     0
 10
0.130914
 20
2.61001
 30
0.0
 11
0.103353
 21
2.84427
 31
0.0
  0
LINE
  8
0
 62
     0
 10
0.103353
 20
2.84427
 30
0.0
 11
0.0937066
 21
3.07854
 31
0.0
  0
LINE
  8
0
 62
     0
 10
0.0937066
 20
3.07854
 30
0.0
 11
0.0950846
 21
81.2793
 31
0.0
  0
LINE
  8
0
 62
     0
 10
0.0950846
 20
81.2793
 30
0.0
 11
0.103353
 21
81.5149
 31
0.0
  0
LINE
  8
0
 62
     0
 10
0.103353
 20
81.5149
 30
0.0
 11
0.130914
 21
81.7492
 31
0.0
  0
LINE
  8
0
 62
     0
 10
0.130914
 20
81.7492
 30
0.0
 11
0.176389
 21
81.981
 31
0.0
  0
LINE
  8
0
 62
     0
 10
0.176389
 20
81.981
 30
0.0
 11
0.241157
 21
82.2082
 31
0.0
  0
LINE
  8
0
 62
     0
 10
0.241157
 20
82.2082
 30
0.0
 11
0.322461
 21
82.4286
 31
0.0
  0
LINE
  8
0
 62
     0
 10
0.322461
 20
82.4286
 30
0.0
 11
0.420303
 21
82.6424
 31
0.0
  0
LINE
  8
0
 62
     0
 10
0.420303
 20
82.6424
 30
0.0
 11
0.537436
 21
82.8477
 31
0.0
  0
LINE
  8
0
 62
     0
 10
0.537436
 20
82.8477
 30
0.0
 11
0.666972
 21
83.0432
 31
0.0
  0
LINE
  8
0
 62
     0
 10
0.666972
 20
83.0432
 30
0.0
 11
0.813043
 21
83.2294
 31
0.0
  0
LINE
  8
0
 62
     0
 10
0.813043
 20
83.2294
 30
0.0
 11
0.972894
 21
83.4016
 31
0.0
  0
LINE
  8
0
 62
     0
 10
0.972894
 20
83.4016
 30
0.0
 11
1.14515
 21
83.5614
 31
0.0
  0
LINE
  8
0
 62
     0
 10
1.14515
 20
83.5614
 30
0.0
 11
1.33119
 21
83.7075
 31
0.0
  0
LINE
  8
0
 62
     0
 10
1.33119
 20
83.7075
 30
0.0
 11
1.52687
 21
83.8369
 31
0.0
  0
LINE
  8
0
 62
     0
 10
1.52687
 20
83.8369
 30
0.0
 11
1.7322
 21
83.9541
 31
0.0
  0
LINE
  8
0
 62
     0
 10
1.7322
 20
83.9541
 30
0.0
 11
1.94579
 21
84.0521
 31
0.0
  0
LINE
  8
0
 62
     0
 10
1.94579
 20
84.0521
 30
0.0
 11
2.16628
 21
84.1333
 31
0.0
  0
LINE
  8
0
 62
     0
 10
2.16628
 20
84.1333
 30
0.0
 11
2.39365
 21
84.1982
 31
0.0
  0
LINE
  8
0
 62
     0
 10
2.39365
 20
84.1982
 30
0.0
 11
2.62516
 21
84.2437
 31
0.0
  0
LINE
  8
0
 62
     0
 10
2.62516
 20
84.2437
 30
0.0
 11
2.85943
 21
84.2712
 31
0.0
  0
LINE
  8
0
 62
     0
 10
2.85943
 20
84.2712
 30
0.0
 11
3.09507
 21
84.2807
 31
0.0
  0
LINE
  8
0
 62
     0
 10
3.09507
 20
84.2807
 30
0.0
 11
138.446
 21
84.2793
 31
0.0
  0
LINE
  8
0
 62
     0
 10
139.106
 20
3.12539
 30
0.0
 11
138.799
 21
2.96829
 31
0.0
  0
LINE
  8
0
 62
     0
 10
138.799
 20
2.96829
 30
0.0
 11
138.556
 21
2.72576
 31
0.0
  0
LINE
  8
0
 62
     0
 10
138.556
 20
2.72576
 30
0.0
 11
138.399
 21
2.41846
 31
0.0
  0
LINE
  8
0
 62
     0
 10
138.399
 20
2.41846
 30
0.0
 11
138.345
 21
2.07946
 31
0.0
  0
LINE
  8
0
 62
     0
 10
138.345
 20
2.07946
 30
0.0
 11
138.399
 21
1.73909
 31
0.0
  0
LINE
  8
0
 62
     0
 10
138.399
 20
1.73909
 30
0.0
 11
138.556
 21
1.43316
 31
0.0
  0
LINE
  8
0
 62
     0
 10
138.556
 20
1.43316
 30
0.0
 11
138.799
 21
1.18925
 31
0.0
  0
LINE
  8
0
 62
     0
 10
138.799
 20
1.18925
 30
0.0
 11
139.106
 21
1.03215
 31
0.0
  0
LINE
  8
0
 62
     0
 10
139.106
 20
1.03215
 30
0.0
 11
139.445
 21
0.978408
 31
0.0
  0
LINE
  8
0
 62
     0
 10
139.445
 20
0.978408
 30
0.0
 11
139.785
 21
1.03215
 31
0.0
  0
LINE
  8
0
 62
     0
 10
139.785
 20
1.03215
 30
0.0
 11
140.091
 21
1.18925
 31
0.0
  0
LINE
  8
0
 62
     0
 10
140.091
 20
1.18925
 30
0.0
 11
140.335
 21
1.43316
 31
0.0
  0
LINE
  8
0
 62
     0
 10
140.335
 20
1.43316
 30
0.0
 11
140.492
 21
1.73909
 31
0.0
  0
LINE
  8
0
 62
     0
 10
140.492
 20
1.73909
 30
0.0
 11
140.546
 21
2.07946
 31
0.0
  0
LINE
  8
0
 62
     0
 10
140.546
 20
2.07946
 30
0.0
 11
140.492
 21
2.41846
 31
0.0
  0
LINE
  8
0
 62
     0
 10
140.492
 20
2.41846
 30
0.0
 11
140.335
 21
2.72576
 31
0.0
  0
LINE
  8
0
 62
     0
 10
140.335
 20
2.72576
 30
0.0
 11
140.091
 21
2.96829
 31
0.0
  0
LINE
  8
0
 62
     0
 10
140.091
 20
2.96829
 30
0.0
 11
139.785
 21
3.12539
 31
0.0
  0
LINE
  8
0
 62
     0
 10
139.785
 20
3.12539
 30
0.0
 11
139.445
 21
3.17913
 31
0.0
  0
LINE
  8
0
 62
     0
 10
139.445
 20
3.17913
 30
0.0
 11
139.106
 21
3.12539
 31
0.0
  0
LINE
  8
0
 62
     0
 10
70.4303
 20
3.12539
 30
0.0
 11
70.1227
 21
2.96829
 31
0.0
  0
LINE
  8
0
 62
     0
 10
70.1227
 20
2.96829
 30
0.0
 11
69.8803
 21
2.72576
 31
0.0
  0
LINE
  8
0
 62
     0
 10
69.8803
 20
2.72576
 30
0.0
 11
69.7234
 21
2.41846
 31
0.0
  0
LINE
  8
0
 62
     0
 10
69.7234
 20
2.41846
 30
0.0
 11
69.6694
 21
2.07946
 31
0.0
  0
LINE
  8
0
 62
     0
 10
69.6694
 20
2.07946
 30
0.0
 11
69.7234
 21
1.73909
 31
0.0
  0
LINE
  8
0
 62
     0
 10
69.7234
 20
1.73909
 30
0.0
 11
69.8803
 21
1.43316
 31
0.0
  0
LINE
  8
0
 62
     0
 10
69.8803
 20
1.43316
 30
0.0
 11
70.1227
 21
1.18925
 31
0.0
  0
LINE
  8
0
 62
     0
 10
70.1227
 20
1.18925
 30
0.0
 11
70.4303
 21
1.03215
 31
0.0
  0
LINE
  8
0
 62
     0
 10
70.4303
 20
1.03215
 30
0.0
 11
70.769
 21
0.978408
 31
0.0
  0
LINE
  8
0
 62
     0
 10
70.769
 20
0.978408
 30
0.0
 11
71.1094
 21
1.03215
 31
0.0
  0
LINE
  8
0
 62
     0
 10
71.1094
 20
1.03215
 30
0.0
 11
71.4167
 21
1.18925
 31
0.0
  0
LINE
  8
0
 62
     0
 10
71.4167
 20
1.18925
 30
0.0
 11
71.6594
 21
1.43316
 31
0.0
  0
LINE
  8
0
 62
     0
 10
71.6594
 20
1.43316
 30
0.0
 11
71.815
 21
1.73909
 31
0.0
  0
LINE
  8
0
 62
     0
 10
71.815
 20
1.73909
 30
0.0
 11
71.8704
 21
2.07946
 31
0.0
  0
LINE
  8
0
 62
     0
 10
71.8704
 20
2.07946
 30
0.0
 11
71.815
 21
2.41846
 31
0.0
  0
LINE
  8
0
 62
     0
 10
71.815
 20
2.41846
 30
0.0
 11
71.6594
 21
2.72576
 31
0.0
  0
LINE
  8
0
 62
     0
 10
71.6594
 20
2.72576
 30
0.0
 11
71.4167
 21
2.96829
 31
0.0
  0
LINE
  8
0
 62
     0
 10
71.4167
 20
2.96829
 30
0.0
 11
71.1094
 21
3.12539
 31
0.0
  0
LINE
  8
0
 62
     0
 10
71.1094
 20
3.12539
 30
0.0
 11
70.769
 21
3.17913
 31
0.0
  0
LINE
  8
0
 62
     0
 10
70.769
 20
3.17913
 30
0.0
 11
70.4303
 21
3.12539
 31
0.0
  0
LINE
  8
0
 62
     0
 10
1.75424
 20
3.12539
 30
0.0
 11
1.44832
 21
2.96829
 31
0.0
  0
LINE
  8
0
 62
     0
 10
1.44832
 20
2.96829
 30
0.0
 11
1.2044
 21
2.72576
 31
0.0
  0
LINE
  8
0
 62
     0
 10
1.2044
 20
2.72576
 30
0.0
 11
1.04731
 21
2.41846
 31
0.0
  0
LINE
  8
0
 62
     0
 10
1.04731
 20
2.41846
 30
0.0
 11
0.994943
 21
2.07946
 31
0.0
  0
LINE
  8
0
 62
     0
 10
0.994943
 20
2.07946
 30
0.0
 11
1.04731
 21
1.73909
 31
0.0
  0
LINE
  8
0
 62
     0
 10
1.04731
 20
1.73909
 30
0.0
 11
1.2044
 21
1.43316
 31
0.0
  0
LINE
  8
0
 62
     0
 10
1.2044
 20
1.43316
 30
0.0
 11
1.44832
 21
1.18925
 31
0.0
  0
LINE
  8
0
 62
     0
 10
1.44832
 20
1.18925
 30
0.0
 11
1.75424
 21
1.03215
 31
0.0
  0
LINE
  8
0
 62
     0
 10
1.75424
 20
1.03215
 30
0.0
 11
2.09462
 21
0.978408
 31
0.0
  0
LINE
  8
0
 62
     0
 10
2.09462
 20
0.978408
 30
0.0
 11
2.43362
 21
1.03215
 31
0.0
  0
LINE
  8
0
 62
     0
 10
2.43362
 20
1.03215
 30
0.0
 11
2.74092
 21
1.18925
 31
0.0
  0
LINE
  8
0
 62
     0
 10
2.74092
 20
1.18925
 30
0.0
 11
2.98345
 21
1.43316
 31
0.0
  0
LINE
  8
0
 62
     0
 10
2.98345
 20
1.43316
 30
0.0
 11
3.13917
 21
1.73909
 31
0.0
  0
LINE
  8
0
 62
     0
 10
3.13917
 20
1.73909
 30
0.0
 11
3.19429
 21
2.07946
 31
0.0
  0
LINE
  8
0
 62
     0
 10
3.19429
 20
2.07946
 30
0.0
 11
3.13917
 21
2.41846
 31
0.0
  0
LINE
  8
0
 62
     0
 10
3.13917
 20
2.41846
 30
0.0
 11
2.98345
 21
2.72576
 31
0.0
  0
LINE
  8
0
 62
     0
 10
2.98345
 20
2.72576
 30
0.0
 11
2.74092
 21
2.96829
 31
0.0
  0
LINE
  8
0
 62
     0
 10
2.74092
 20
2.96829
 30
0.0
 11
2.43362
 21
3.12539
 31
0.0
  0
LINE
  8
0
 62
     0
 10
2.43362
 20
3.12539
 30
0.0
 11
2.09462
 21
3.17913
 31
0.0
  0
LINE
  8
0
 62
     0
 10
2.09462
 20
3.17913
 30
0.0
 11
1.75424
 21
3.12539
 31
0.0
  0
LINE
  8
0
 62
     0
 10
16.1437
 20
20.6044
 30
0.0
 11
16.1437
 21
19.6053
 31
0.0
  0
LINE
  8
0
 62
     0
 10
16.1437
 20
19.6053
 30
0.0
 11
15.3431
 21
19.6053
 31
0.0
  0
LINE
  8
0
 62
     0
 10
15.3431
 20
19.6053
 30
0.0
 11
15.3431
 21
16.5048
 31
0.0
  0
LINE
  8
0
 62
     0
 10
15.3431
 20
16.5048
 30
0.0
 11
16.1437
 21
16.5048
 31
0.0
  0
LINE
  8
0
 62
     0
 10
16.1437
 20
16.5048
 30
0.0
 11
16.1437
 21
10.7046
 31
0.0
  0
LINE
  8
0
 62
     0
 10
16.1437
 20
10.7046
 30
0.0
 11
15.3431
 21
10.7046
 31
0.0
  0
LINE
  8
0
 62
     0
 10
15.3431
 20
10.7046
 30
0.0
 11
15.3431
 21
7.60539
 31
0.0
  0
LINE
  8
0
 62
     0
 10
15.3431
 20
7.60539
 30
0.0
 11
16.1437
 21
7.60539
 31
0.0
  0
LINE
  8
0
 62
     0
 10
16.1437
 20
7.60539
 30
0.0
 11
16.1437
 21
6.60495
 31
0.0
  0
LINE
  8
0
 62
     0
 10
16.1437
 20
6.60495
 30
0.0
 11
30.1446
 21
6.60495
 31
0.0
  0
LINE
  8
0
 62
     0
 10
30.1446
 20
6.60495
 30
0.0
 11
30.1446
 21
7.60539
 31
0.0
  0
LINE
  8
0
 62
     0
 10
30.1446
 20
7.60539
 30
0.0
 11
30.9438
 21
7.60539
 31
0.0
  0
LINE
  8
0
 62
     0
 10
30.9438
 20
7.60539
 30
0.0
 11
30.9438
 21
10.7046
 31
0.0
  0
LINE
  8
0
 62
     0
 10
30.9438
 20
10.7046
 30
0.0
 11
30.1446
 21
10.7046
 31
0.0
  0
LINE
  8
0
 62
     0
 10
30.1446
 20
10.7046
 30
0.0
 11
30.1446
 21
16.5048
 31
0.0
  0
LINE
  8
0
 62
     0
 10
30.1446
 20
16.5048
 30
0.0
 11
30.9438
 21
16.5048
 31
0.0
  0
LINE
  8
0
 62
     0
 10
30.9438
 20
16.5048
 30
0.0
 11
30.9438
 21
19.6053
 31
0.0
  0
LINE
  8
0
 62
     0
 10
30.9438
 20
19.6053
 30
0.0
 11
30.1446
 21
19.6053
 31
0.0
  0
LINE
  8
0
 62
     0
 10
30.1446
 20
19.6053
 30
0.0
 11
30.1446
 21
20.6044
 31
0.0
  0
LINE
  8
0
 62
     0
 10
30.1446
 20
20.6044
 30
0.0
 11
16.1437
 21
20.6044
 31
0.0
  0
LINE
  8
0
 62
     0
 10
35.1937
 20
20.6044
 30
0.0
 11
35.1937
 21
19.6053
 31
0.0
  0
LINE
  8
0
 62
     0
 10
35.1937
 20
19.6053
 30
0.0
 11
34.3945
 21
19.6053
 31
0.0
  0
LINE
  8
0
 62
     0
 10
34.3945
 20
19.6053
 30
0.0
 11
34.3945
 21
16.5048
 31
0.0
  0
LINE
  8
0
 62
     0
 10
34.3945
 20
16.5048
 30
0.0
 11
35.1937
 21
16.5048
 31
0.0
  0
LINE
  8
0
 62
     0
 10
35.1937
 20
16.5048
 30
0.0
 11
35.1937
 21
10.7046
 31
0.0
  0
LINE
  8
0
 62
     0
 10
35.1937
 20
10.7046
 30
0.0
 11
34.3945
 21
10.7046
 31
0.0
  0
LINE
  8
0
 62
     0
 10
34.3945
 20
10.7046
 30
0.0
 11
34.3945
 21
7.60539
 31
0.0
  0
LINE
  8
0
 62
     0
 10
34.3945
 20
7.60539
 30
0.0
 11
35.1937
 21
7.60539
 31
0.0
  0
LINE
  8
0
 62
     0
 10
35.1937
 20
7.60539
 30
0.0
 11
35.1937
 21
6.60495
 31
0.0
  0
LINE
  8
0
 62
     0
 10
35.1937
 20
6.60495
 30
0.0
 11
49.1931
 21
6.60495
 31
0.0
  0
LINE
  8
0
 62
     0
 10
49.1931
 20
6.60495
 30
0.0
 11
49.1931
 21
7.60539
 31
0.0
  0
LINE
  8
0
 62
     0
 10
49.1931
 20
7.60539
 30
0.0
 11
49.9939
 21
7.60539
 31
0.0
  0
LINE
  8
0
 62
     0
 10
49.9939
 20
7.60539
 30
0.0
 11
49.9939
 21
10.7046
 31
0.0
  0
LINE
  8
0
 62
     0
 10
49.9939
 20
10.7046
 30
0.0
 11
49.1931
 21
10.7046
 31
0.0
  0
LINE
  8
0
 62
     0
 10
49.1931
 20
10.7046
 30
0.0
 11
49.1931
 21
16.5048
 31
0.0
  0
LINE
  8
0
 62
     0
 10
49.1931
 20
16.5048
 30
0.0
 11
49.9939
 21
16.5048
 31
0.0
  0
LINE
  8
0
 62
     0
 10
49.9939
 20
16.5048
 30
0.0
 11
49.9939
 21
19.6053
 31
0.0
  0
LINE
  8
0
 62
     0
 10
49.9939
 20
19.6053
 30
0.0
 11
49.1931
 21
19.6053
 31
0.0
  0
LINE
  8
0
 62
     0
 10
49.1931
 20
19.6053
 30
0.0
 11
49.1931
 21
20.6044
 31
0.0
  0
LINE
  8
0
 62
     0
 10
49.1931
 20
20.6044
 30
0.0
 11
35.1937
 21
20.6044
 31
0.0
  0
LINE
  8
0
 62
     0
 10
54.2438
 20
20.6044
 30
0.0
 11
54.2438
 21
19.6053
 31
0.0
  0
LINE
  8
0
 62
     0
 10
54.2438
 20
19.6053
 30
0.0
 11
53.443
 21
19.6053
 31
0.0
  0
LINE
  8
0
 62
     0
 10
53.443
 20
19.6053
 30
0.0
 11
53.443
 21
16.5048
 31
0.0
  0
LINE
  8
0
 62
     0
 10
53.443
 20
16.5048
 30
0.0
 11
54.2438
 21
16.5048
 31
0.0
  0
LINE
  8
0
 62
     0
 10
54.2438
 20
16.5048
 30
0.0
 11
54.2438
 21
10.7046
 31
0.0
  0
LINE
  8
0
 62
     0
 10
54.2438
 20
10.7046
 30
0.0
 11
53.443
 21
10.7046
 31
0.0
  0
LINE
  8
0
 62
     0
 10
53.443
 20
10.7046
 30
0.0
 11
53.443
 21
7.60539
 31
0.0
  0
LINE
  8
0
 62
     0
 10
53.443
 20
7.60539
 30
0.0
 11
54.2438
 21
7.60539
 31
0.0
  0
LINE
  8
0
 62
     0
 10
54.2438
 20
7.60539
 30
0.0
 11
54.2438
 21
6.60495
 31
0.0
  0
LINE
  8
0
 62
     0
 10
54.2438
 20
6.60495
 30
0.0
 11
68.2431
 21
6.60495
 31
0.0
  0
LINE
  8
0
 62
     0
 10
68.2431
 20
6.60495
 30
0.0
 11
68.2431
 21
7.60539
 31
0.0
  0
LINE
  8
0
 62
     0
 10
68.2431
 20
7.60539
 30
0.0
 11
69.0439
 21
7.60539
 31
0.0
  0
LINE
  8
0
 62
     0
 10
69.0439
 20
7.60539
 30
0.0
 11
69.0439
 21
10.7046
 31
0.0
  0
LINE
  8
0
 62
     0
 10
69.0439
 20
10.7046
 30
0.0
 11
68.2431
 21
10.7046
 31
0.0
  0
LINE
  8
0
 62
     0
 10
68.2431
 20
10.7046
 30
0.0
 11
68.2431
 21
16.5048
 31
0.0
  0
LINE
  8
0
 62
     0
 10
68.2431
 20
16.5048
 30
0.0
 11
69.0439
 21
16.5048
 31
0.0
  0
LINE
  8
0
 62
     0
 10
69.0439
 20
16.5048
 30
0.0
 11
69.0439
 21
19.6053
 31
0.0
  0
LINE
  8
0
 62
     0
 10
69.0439
 20
19.6053
 30
0.0
 11
68.2431
 21
19.6053
 31
0.0
  0
LINE
  8
0
 62
     0
 10
68.2431
 20
19.6053
 30
0.0
 11
68.2431
 21
20.6044
 31
0.0
  0
LINE
  8
0
 62
     0
 10
68.2431
 20
20.6044
 30
0.0
 11
54.2438
 21
20.6044
 31
0.0
  0
LINE
  8
0
 62
     0
 10
73.2938
 20
20.6044
 30
0.0
 11
73.2938
 21
19.6053
 31
0.0
  0
LINE
  8
0
 62
     0
 10
73.2938
 20
19.6053
 30
0.0
 11
72.493
 21
19.6053
 31
0.0
  0
LINE
  8
0
 62
     0
 10
72.493
 20
19.6053
 30
0.0
 11
72.493
 21
16.5048
 31
0.0
  0
LINE
  8
0
 62
     0
 10
72.493
 20
16.5048
 30
0.0
 11
73.2938
 21
16.5048
 31
0.0
  0
LINE
  8
0
 62
     0
 10
73.2938
 20
16.5048
 30
0.0
 11
73.2938
 21
10.7046
 31
0.0
  0
LINE
  8
0
 62
     0
 10
73.2938
 20
10.7046
 30
0.0
 11
72.493
 21
10.7046
 31
0.0
  0
LINE
  8
0
 62
     0
 10
72.493
 20
10.7046
 30
0.0
 11
72.493
 21
7.60539
 31
0.0
  0
LINE
  8
0
 62
     0
 10
72.493
 20
7.60539
 30
0.0
 11
73.2938
 21
7.60539
 31
0.0
  0
LINE
  8
0
 62
     0
 10
73.2938
 20
7.60539
 30
0.0
 11
73.2938
 21
6.60495
 31
0.0
  0
LINE
  8
0
 62
     0
 10
73.2938
 20
6.60495
 30
0.0
 11
87.2931
 21
6.60495
 31
0.0
  0
LINE
  8
0
 62
     0
 10
87.2931
 20
6.60495
 30
0.0
 11
87.2931
 21
7.60539
 31
0.0
  0
LINE
  8
0
 62
     0
 10
87.2931
 20
7.60539
 30
0.0
 11
88.0939
 21
7.60539
 31
0.0
  0
LINE
  8
0
 62
     0
 10
88.0939
 20
7.60539
 30
0.0
 11
88.0939
 21
10.7046
 31
0.0
  0
LINE
  8
0
 62
     0
 10
88.0939
 20
10.7046
 30
0.0
 11
87.2931
 21
10.7046
 31
0.0
  0
LINE
  8
0
 62
     0
 10
87.2931
 20
10.7046
 30
0.0
 11
87.2931
 21
16.5048
 31
0.0
  0
LINE
  8
0
 62
     0
 10
87.2931
 20
16.5048
 30
0.0
 11
88.0939
 21
16.5048
 31
0.0
  0
LINE
  8
0
 62
     0
 10
88.0939
 20
16.5048
 30
0.0
 11
88.0939
 21
19.6053
 31
0.0
  0
LINE
  8
0
 62
     0
 10
88.0939
 20
19.6053
 30
0.0
 11
87.2931
 21
19.6053
 31
0.0
  0
LINE
  8
0
 62
     0
 10
87.2931
 20
19.6053
 30
0.0
 11
87.2931
 21
20.6044
 31
0.0
  0
LINE
  8
0
 62
     0
 10
87.2931
 20
20.6044
 30
0.0
 11
73.2938
 21
20.6044
 31
0.0
  0
LINE
  8
0
 62
     0
 10
97.1063
 20
20.6044
 30
0.0
 11
97.1063
 21
19.6053
 31
0.0
  0
LINE
  8
0
 62
     0
 10
97.1063
 20
19.6053
 30
0.0
 11
96.3069
 21
19.6053
 31
0.0
  0
LINE
  8
0
 62
     0
 10
96.3069
 20
19.6053
 30
0.0
 11
96.3069
 21
16.5048
 31
0.0
  0
LINE
  8
0
 62
     0
 10
96.3069
 20
16.5048
 30
0.0
 11
97.1063
 21
16.5048
 31
0.0
  0
LINE
  8
0
 62
     0
 10
97.1063
 20
16.5048
 30
0.0
 11
97.1063
 21
10.7046
 31
0.0
  0
LINE
  8
0
 62
     0
 10
97.1063
 20
10.7046
 30
0.0
 11
96.3069
 21
10.7046
 31
0.0
  0
LINE
  8
0
 62
     0
 10
96.3069
 20
10.7046
 30
0.0
 11
96.3069
 21
7.60539
 31
0.0
  0
LINE
  8
0
 62
     0
 10
96.3069
 20
7.60539
 30
0.0
 11
97.1063
 21
7.60539
 31
0.0
  0
LINE
  8
0
 62
     0
 10
97.1063
 20
7.60539
 30
0.0
 11
97.1063
 21
6.60495
 31
0.0
  0
LINE
  8
0
 62
     0
 10
97.1063
 20
6.60495
 30
0.0
 11
111.107
 21
6.60495
 31
0.0
  0
LINE
  8
0
 62
     0
 10
111.107
 20
6.60495
 30
0.0
 11
111.107
 21
7.60539
 31
0.0
  0
LINE
  8
0
 62
     0
 10
111.107
 20
7.60539
 30
0.0
 11
111.906
 21
7.60539
 31
0.0
  0
LINE
  8
0
 62
     0
 10
111.906
 20
7.60539
 30
0.0
 11
111.906
 21
10.7046
 31
0.0
  0
LINE
  8
0
 62
     0
 10
111.906
 20
10.7046
 30
0.0
 11
111.107
 21
10.7046
 31
0.0
  0
LINE
  8
0
 62
     0
 10
111.107
 20
10.7046
 30
0.0
 11
111.107
 21
16.5048
 31
0.0
  0
LINE
  8
0
 62
     0
 10
111.107
 20
16.5048
 30
0.0
 11
111.906
 21
16.5048
 31
0.0
  0
LINE
  8
0
 62
     0
 10
111.906
 20
16.5048
 30
0.0
 11
111.906
 21
19.6053
 31
0.0
  0
LINE
  8
0
 62
     0
 10
111.906
 20
19.6053
 30
0.0
 11
111.107
 21
19.6053
 31
0.0
  0
LINE
  8
0
 62
     0
 10
111.107
 20
19.6053
 30
0.0
 11
111.107
 21
20.6044
 31
0.0
  0
LINE
  8
0
 62
     0
 10
111.107
 20
20.6044
 30
0.0
 11
97.1063
 21
20.6044
 31
0.0
  0
LINE
  8
0
 62
     0
 10
121.919
 20
26.1676
 30
0.0
 11
121.919
 21
25.3683
 31
0.0
  0
LINE
  8
0
 62
     0
 10
121.919
 20
25.3683
 30
0.0
 11
120.92
 21
25.3683
 31
0.0
  0
LINE
  8
0
 62
     0
 10
120.92
 20
25.3683
 30
0.0
 11
120.92
 21
11.3675
 31
0.0
  0
LINE
  8
0
 62
     0
 10
120.92
 20
11.3675
 30
0.0
 11
121.919
 21
11.3675
 31
0.0
  0
LINE
  8
0
 62
     0
 10
121.919
 20
11.3675
 30
0.0
 11
121.919
 21
10.5682
 31
0.0
  0
LINE
  8
0
 62
     0
 10
121.919
 20
10.5682
 30
0.0
 11
125.02
 21
10.5682
 31
0.0
  0
LINE
  8
0
 62
     0
 10
125.02
 20
10.5682
 30
0.0
 11
125.02
 21
11.3675
 31
0.0
  0
LINE
  8
0
 62
     0
 10
125.02
 20
11.3675
 30
0.0
 11
130.82
 21
11.3675
 31
0.0
  0
LINE
  8
0
 62
     0
 10
130.82
 20
11.3675
 30
0.0
 11
130.82
 21
10.5682
 31
0.0
  0
LINE
  8
0
 62
     0
 10
130.82
 20
10.5682
 30
0.0
 11
133.919
 21
10.5682
 31
0.0
  0
LINE
  8
0
 62
     0
 10
133.919
 20
10.5682
 30
0.0
 11
133.919
 21
11.3675
 31
0.0
  0
LINE
  8
0
 62
     0
 10
133.919
 20
11.3675
 30
0.0
 11
134.92
 21
11.3675
 31
0.0
  0
LINE
  8
0
 62
     0
 10
134.92
 20
11.3675
 30
0.0
 11
134.92
 21
25.3683
 31
0.0
  0
LINE
  8
0
 62
     0
 10
134.92
 20
25.3683
 30
0.0
 11
133.919
 21
25.3683
 31
0.0
  0
LINE
  8
0
 62
     0
 10
133.919
 20
25.3683
 30
0.0
 11
133.919
 21
26.1676
 31
0.0
  0
LINE
  8
0
 62
     0
 10
133.919
 20
26.1676
 30
0.0
 11
130.82
 21
26.1676
 31
0.0
  0
LINE
  8
0
 62
     0
 10
130.82
 20
26.1676
 30
0.0
 11
130.82
 21
25.3683
 31
0.0
  0
LINE
  8
0
 62
     0
 10
130.82
 20
25.3683
 30
0.0
 11
125.02
 21
25.3683
 31
0.0
  0
LINE
  8
0
 62
     0
 10
125.02
 20
25.3683
 30
0.0
 11
125.02
 21
26.1676
 31
0.0
  0
LINE
  8
0
 62
     0
 10
125.02
 20
26.1676
 30
0.0
 11
121.919
 21
26.1676
 31
0.0
  0
LINE
  8
0
 62
     0
 10
6.61871
 20
39.6543
 30
0.0
 11
6.61871
 21
38.6553
 31
0.0
  0
LINE
  8
0
 62
     0
 10
6.61871
 20
38.6553
 30
0.0
 11
5.81808
 21
38.6553
 31
0.0
  0
LINE
  8
0
 62
     0
 10
5.81808
 20
38.6553
 30
0.0
 11
5.81808
 21
35.5547
 31
0.0
  0
LINE
  8
0
 62
     0
 10
5.81808
 20
35.5547
 30
0.0
 11
6.61871
 21
35.5547
 31
0.0
  0
LINE
  8
0
 62
     0
 10
6.61871
 20
35.5547
 30
0.0
 11
6.61871
 21
29.7546
 31
0.0
  0
LINE
  8
0
 62
     0
 10
6.61871
 20
29.7546
 30
0.0
 11
5.81808
 21
29.7546
 31
0.0
  0
LINE
  8
0
 62
     0
 10
5.81808
 20
29.7546
 30
0.0
 11
5.81808
 21
26.6554
 31
0.0
  0
LINE
  8
0
 62
     0
 10
5.81808
 20
26.6554
 30
0.0
 11
6.61871
 21
26.6554
 31
0.0
  0
LINE
  8
0
 62
     0
 10
6.61871
 20
26.6554
 30
0.0
 11
6.61871
 21
25.655
 31
0.0
  0
LINE
  8
0
 62
     0
 10
6.61871
 20
25.655
 30
0.0
 11
20.6196
 21
25.655
 31
0.0
  0
LINE
  8
0
 62
     0
 10
20.6196
 20
25.655
 30
0.0
 11
20.6196
 21
26.6554
 31
0.0
  0
LINE
  8
0
 62
     0
 10
20.6196
 20
26.6554
 30
0.0
 11
21.4202
 21
26.6554
 31
0.0
  0
LINE
  8
0
 62
     0
 10
21.4202
 20
26.6554
 30
0.0
 11
21.4202
 21
29.7546
 31
0.0
  0
LINE
  8
0
 62
     0
 10
21.4202
 20
29.7546
 30
0.0
 11
20.6196
 21
29.7546
 31
0.0
  0
LINE
  8
0
 62
     0
 10
20.6196
 20
29.7546
 30
0.0
 11
20.6196
 21
35.5547
 31
0.0
  0
LINE
  8
0
 62
     0
 10
20.6196
 20
35.5547
 30
0.0
 11
21.4202
 21
35.5547
 31
0.0
  0
LINE
  8
0
 62
     0
 10
21.4202
 20
35.5547
 30
0.0
 11
21.4202
 21
38.6553
 31
0.0
  0
LINE
  8
0
 62
     0
 10
21.4202
 20
38.6553
 30
0.0
 11
20.6196
 21
38.6553
 31
0.0
  0
LINE
  8
0
 62
     0
 10
20.6196
 20
38.6553
 30
0.0
 11
20.6196
 21
39.6543
 31
0.0
  0
LINE
  8
0
 62
     0
 10
20.6196
 20
39.6543
 30
0.0
 11
6.61871
 21
39.6543
 31
0.0
  0
LINE
  8
0
 62
     0
 10
25.6701
 20
39.6543
 30
0.0
 11
25.6701
 21
38.6553
 31
0.0
  0
LINE
  8
0
 62
     0
 10
25.6701
 20
38.6553
 30
0.0
 11
24.8695
 21
38.6553
 31
0.0
  0
LINE
  8
0
 62
     0
 10
24.8695
 20
38.6553
 30
0.0
 11
24.8695
 21
35.5547
 31
0.0
  0
LINE
  8
0
 62
     0
 10
24.8695
 20
35.5547
 30
0.0
 11
25.6701
 21
35.5547
 31
0.0
  0
LINE
  8
0
 62
     0
 10
25.6701
 20
35.5547
 30
0.0
 11
25.6701
 21
29.7546
 31
0.0
  0
LINE
  8
0
 62
     0
 10
25.6701
 20
29.7546
 30
0.0
 11
24.8695
 21
29.7546
 31
0.0
  0
LINE
  8
0
 62
     0
 10
24.8695
 20
29.7546
 30
0.0
 11
24.8695
 21
26.6554
 31
0.0
  0
LINE
  8
0
 62
     0
 10
24.8695
 20
26.6554
 30
0.0
 11
25.6701
 21
26.6554
 31
0.0
  0
LINE
  8
0
 62
     0
 10
25.6701
 20
26.6554
 30
0.0
 11
25.6701
 21
25.655
 31
0.0
  0
LINE
  8
0
 62
     0
 10
25.6701
 20
25.655
 30
0.0
 11
39.6695
 21
25.655
 31
0.0
  0
LINE
  8
0
 62
     0
 10
39.6695
 20
25.655
 30
0.0
 11
39.6695
 21
26.6554
 31
0.0
  0
LINE
  8
0
 62
     0
 10
39.6695
 20
26.6554
 30
0.0
 11
40.4703
 21
26.6554
 31
0.0
  0
LINE
  8
0
 62
     0
 10
40.4703
 20
26.6554
 30
0.0
 11
40.4703
 21
29.7546
 31
0.0
  0
LINE
  8
0
 62
     0
 10
40.4703
 20
29.7546
 30
0.0
 11
39.6695
 21
29.7546
 31
0.0
  0
LINE
  8
0
 62
     0
 10
39.6695
 20
29.7546
 30
0.0
 11
39.6695
 21
35.5547
 31
0.0
  0
LINE
  8
0
 62
     0
 10
39.6695
 20
35.5547
 30
0.0
 11
40.4703
 21
35.5547
 31
0.0
  0
LINE
  8
0
 62
     0
 10
40.4703
 20
35.5547
 30
0.0
 11
40.4703
 21
38.6553
 31
0.0
  0
LINE
  8
0
 62
     0
 10
40.4703
 20
38.6553
 30
0.0
 11
39.6695
 21
38.6553
 31
0.0
  0
LINE
  8
0
 62
     0
 10
39.6695
 20
38.6553
 30
0.0
 11
39.6695
 21
39.6543
 31
0.0
  0
LINE
  8
0
 62
     0
 10
39.6695
 20
39.6543
 30
0.0
 11
25.6701
 21
39.6543
 31
0.0
  0
LINE
  8
0
 62
     0
 10
44.7202
 20
39.6543
 30
0.0
 11
44.7202
 21
38.6553
 31
0.0
  0
LINE
  8
0
 62
     0
 10
44.7202
 20
38.6553
 30
0.0
 11
43.9194
 21
38.6553
 31
0.0
  0
LINE
  8
0
 62
     0
 10
43.9194
 20
38.6553
 30
0.0
 11
43.9194
 21
35.5547
 31
0.0
  0
LINE
  8
0
 62
     0
 10
43.9194
 20
35.5547
 30
0.0
 11
44.7202
 21
35.5547
 31
0.0
  0
LINE
  8
0
 62
     0
 10
44.7202
 20
35.5547
 30
0.0
 11
44.7202
 21
29.7546
 31
0.0
  0
LINE
  8
0
 62
     0
 10
44.7202
 20
29.7546
 30
0.0
 11
43.9194
 21
29.7546
 31
0.0
  0
LINE
  8
0
 62
     0
 10
43.9194
 20
29.7546
 30
0.0
 11
43.9194
 21
26.6554
 31
0.0
  0
LINE
  8
0
 62
     0
 10
43.9194
 20
26.6554
 30
0.0
 11
44.7202
 21
26.6554
 31
0.0
  0
LINE
  8
0
 62
     0
 10
44.7202
 20
26.6554
 30
0.0
 11
44.7202
 21
25.655
 31
0.0
  0
LINE
  8
0
 62
     0
 10
44.7202
 20
25.655
 30
0.0
 11
58.7195
 21
25.655
 31
0.0
  0
LINE
  8
0
 62
     0
 10
58.7195
 20
25.655
 30
0.0
 11
58.7195
 21
26.6554
 31
0.0
  0
LINE
  8
0
 62
     0
 10
58.7195
 20
26.6554
 30
0.0
 11
59.5203
 21
26.6554
 31
0.0
  0
LINE
  8
0
 62
     0
 10
59.5203
 20
26.6554
 30
0.0
 11
59.5203
 21
29.7546
 31
0.0
  0
LINE
  8
0
 62
     0
 10
59.5203
 20
29.7546
 30
0.0
 11
58.7195
 21
29.7546
 31
0.0
  0
LINE
  8
0
 62
     0
 10
58.7195
 20
29.7546
 30
0.0
 11
58.7195
 21
35.5547
 31
0.0
  0
LINE
  8
0
 62
     0
 10
58.7195
 20
35.5547
 30
0.0
 11
59.5203
 21
35.5547
 31
0.0
  0
LINE
  8
0
 62
     0
 10
59.5203
 20
35.5547
 30
0.0
 11
59.5203
 21
38.6553
 31
0.0
  0
LINE
  8
0
 62
     0
 10
59.5203
 20
38.6553
 30
0.0
 11
58.7195
 21
38.6553
 31
0.0
  0
LINE
  8
0
 62
     0
 10
58.7195
 20
38.6553
 30
0.0
 11
58.7195
 21
39.6543
 31
0.0
  0
LINE
  8
0
 62
     0
 10
58.7195
 20
39.6543
 30
0.0
 11
44.7202
 21
39.6543
 31
0.0
  0
LINE
  8
0
 62
     0
 10
63.7702
 20
39.6543
 30
0.0
 11
63.7702
 21
38.6553
 31
0.0
  0
LINE
  8
0
 62
     0
 10
63.7702
 20
38.6553
 30
0.0
 11
62.9694
 21
38.6553
 31
0.0
  0
LINE
  8
0
 62
     0
 10
62.9694
 20
38.6553
 30
0.0
 11
62.9694
 21
35.5547
 31
0.0
  0
LINE
  8
0
 62
     0
 10
62.9694
 20
35.5547
 30
0.0
 11
63.7702
 21
35.5547
 31
0.0
  0
LINE
  8
0
 62
     0
 10
63.7702
 20
35.5547
 30
0.0
 11
63.7702
 21
29.7546
 31
0.0
  0
LINE
  8
0
 62
     0
 10
63.7702
 20
29.7546
 30
0.0
 11
62.9694
 21
29.7546
 31
0.0
  0
LINE
  8
0
 62
     0
 10
62.9694
 20
29.7546
 30
0.0
 11
62.9694
 21
26.6554
 31
0.0
  0
LINE
  8
0
 62
     0
 10
62.9694
 20
26.6554
 30
0.0
 11
63.7702
 21
26.6554
 31
0.0
  0
LINE
  8
0
 62
     0
 10
63.7702
 20
26.6554
 30
0.0
 11
63.7702
 21
25.655
 31
0.0
  0
LINE
  8
0
 62
     0
 10
63.7702
 20
25.655
 30
0.0
 11
77.7695
 21
25.655
 31
0.0
  0
LINE
  8
0
 62
     0
 10
77.7695
 20
25.655
 30
0.0
 11
77.7695
 21
26.6554
 31
0.0
  0
LINE
  8
0
 62
     0
 10
77.7695
 20
26.6554
 30
0.0
 11
78.5703
 21
26.6554
 31
0.0
  0
LINE
  8
0
 62
     0
 10
78.5703
 20
26.6554
 30
0.0
 11
78.5703
 21
29.7546
 31
0.0
  0
LINE
  8
0
 62
     0
 10
78.5703
 20
29.7546
 30
0.0
 11
77.7695
 21
29.7546
 31
0.0
  0
LINE
  8
0
 62
     0
 10
77.7695
 20
29.7546
 30
0.0
 11
77.7695
 21
35.5547
 31
0.0
  0
LINE
  8
0
 62
     0
 10
77.7695
 20
35.5547
 30
0.0
 11
78.5703
 21
35.5547
 31
0.0
  0
LINE
  8
0
 62
     0
 10
78.5703
 20
35.5547
 30
0.0
 11
78.5703
 21
38.6553
 31
0.0
  0
LINE
  8
0
 62
     0
 10
78.5703
 20
38.6553
 30
0.0
 11
77.7695
 21
38.6553
 31
0.0
  0
LINE
  8
0
 62
     0
 10
77.7695
 20
38.6553
 30
0.0
 11
77.7695
 21
39.6543
 31
0.0
  0
LINE
  8
0
 62
     0
 10
77.7695
 20
39.6543
 30
0.0
 11
63.7702
 21
39.6543
 31
0.0
  0
LINE
  8
0
 62
     0
 10
82.8202
 20
39.6543
 30
0.0
 11
82.8202
 21
38.6553
 31
0.0
  0
LINE
  8
0
 62
     0
 10
82.8202
 20
38.6553
 30
0.0
 11
82.0194
 21
38.6553
 31
0.0
  0
LINE
  8
0
 62
     0
 10
82.0194
 20
38.6553
 30
0.0
 11
82.0194
 21
35.5547
 31
0.0
  0
LINE
  8
0
 62
     0
 10
82.0194
 20
35.5547
 30
0.0
 11
82.8202
 21
35.5547
 31
0.0
  0
LINE
  8
0
 62
     0
 10
82.8202
 20
35.5547
 30
0.0
 11
82.8202
 21
29.7546
 31
0.0
  0
LINE
  8
0
 62
     0
 10
82.8202
 20
29.7546
 30
0.0
 11
82.0194
 21
29.7546
 31
0.0
  0
LINE
  8
0
 62
     0
 10
82.0194
 20
29.7546
 30
0.0
 11
82.0194
 21
26.6554
 31
0.0
  0
LINE
  8
0
 62
     0
 10
82.0194
 20
26.6554
 30
0.0
 11
82.8202
 21
26.6554
 31
0.0
  0
LINE
  8
0
 62
     0
 10
82.8202
 20
26.6554
 30
0.0
 11
82.8202
 21
25.655
 31
0.0
  0
LINE
  8
0
 62
     0
 10
82.8202
 20
25.655
 30
0.0
 11
96.8195
 21
25.655
 31
0.0
  0
LINE
  8
0
 62
     0
 10
96.8195
 20
25.655
 30
0.0
 11
96.8195
 21
26.6554
 31
0.0
  0
LINE
  8
0
 62
     0
 10
96.8195
 20
26.6554
 30
0.0
 11
97.6189
 21
26.6554
 31
0.0
  0
LINE
  8
0
 62
     0
 10
97.6189
 20
26.6554
 30
0.0
 11
97.6189
 21
29.7546
 31
0.0
  0
LINE
  8
0
 62
     0
 10
97.6189
 20
29.7546
 30
0.0
 11
96.8195
 21
29.7546
 31
0.0
  0
LINE
  8
0
 62
     0
 10
96.8195
 20
29.7546
 30
0.0
 11
96.8195
 21
35.5547
 31
0.0
  0
LINE
  8
0
 62
     0
 10
96.8195
 20
35.5547
 30
0.0
 11
97.6189
 21
35.5547
 31
0.0
  0
LINE
  8
0
 62
     0
 10
97.6189
 20
35.5547
 30
0.0
 11
97.6189
 21
38.6553
 31
0.0
  0
LINE
  8
0
 62
     0
 10
97.6189
 20
38.6553
 30
0.0
 11
96.8195
 21
38.6553
 31
0.0
  0
LINE
  8
0
 62
     0
 10
96.8195
 20
38.6553
 30
0.0
 11
96.8195
 21
39.6543
 31
0.0
  0
LINE
  8
0
 62
     0
 10
96.8195
 20
39.6543
 30
0.0
 11
82.8202
 21
39.6543
 31
0.0
  0
LINE
  8
0
 62
     0
 10
101.869
 20
39.6543
 30
0.0
 11
101.869
 21
38.6553
 31
0.0
  0
LINE
  8
0
 62
     0
 10
101.869
 20
38.6553
 30
0.0
 11
101.069
 21
38.6553
 31
0.0
  0
LINE
  8
0
 62
     0
 10
101.069
 20
38.6553
 30
0.0
 11
101.069
 21
35.5547
 31
0.0
  0
LINE
  8
0
 62
     0
 10
101.069
 20
35.5547
 30
0.0
 11
101.869
 21
35.5547
 31
0.0
  0
LINE
  8
0
 62
     0
 10
101.869
 20
35.5547
 30
0.0
 11
101.869
 21
29.7546
 31
0.0
  0
LINE
  8
0
 62
     0
 10
101.869
 20
29.7546
 30
0.0
 11
101.069
 21
29.7546
 31
0.0
  0
LINE
  8
0
 62
     0
 10
101.069
 20
29.7546
 30
0.0
 11
101.069
 21
26.6554
 31
0.0
  0
LINE
  8
0
 62
     0
 10
101.069
 20
26.6554
 30
0.0
 11
101.869
 21
26.6554
 31
0.0
  0
LINE
  8
0
 62
     0
 10
101.869
 20
26.6554
 30
0.0
 11
101.869
 21
25.655
 31
0.0
  0
LINE
  8
0
 62
     0
 10
101.869
 20
25.655
 30
0.0
 11
115.868
 21
25.655
 31
0.0
  0
LINE
  8
0
 62
     0
 10
115.868
 20
25.655
 30
0.0
 11
115.868
 21
26.6554
 31
0.0
  0
LINE
  8
0
 62
     0
 10
115.868
 20
26.6554
 30
0.0
 11
116.669
 21
26.6554
 31
0.0
  0
LINE
  8
0
 62
     0
 10
116.669
 20
26.6554
 30
0.0
 11
116.669
 21
29.7546
 31
0.0
  0
LINE
  8
0
 62
     0
 10
116.669
 20
29.7546
 30
0.0
 11
115.868
 21
29.7546
 31
0.0
  0
LINE
  8
0
 62
     0
 10
115.868
 20
29.7546
 30
0.0
 11
115.868
 21
35.5547
 31
0.0
  0
LINE
  8
0
 62
     0
 10
115.868
 20
35.5547
 30
0.0
 11
116.669
 21
35.5547
 31
0.0
  0
LINE
  8
0
 62
     0
 10
116.669
 20
35.5547
 30
0.0
 11
116.669
 21
38.6553
 31
0.0
  0
LINE
  8
0
 62
     0
 10
116.669
 20
38.6553
 30
0.0
 11
115.868
 21
38.6553
 31
0.0
  0
LINE
  8
0
 62
     0
 10
115.868
 20
38.6553
 30
0.0
 11
115.868
 21
39.6543
 31
0.0
  0
LINE
  8
0
 62
     0
 10
115.868
 20
39.6543
 30
0.0
 11
101.869
 21
39.6543
 31
0.0
  0
LINE
  8
0
 62
     0
 10
11.3812
 20
58.7043
 30
0.0
 11
11.3812
 21
57.7053
 31
0.0
  0
LINE
  8
0
 62
     0
 10
11.3812
 20
57.7053
 30
0.0
 11
10.582
 21
57.7053
 31
0.0
  0
LINE
  8
0
 62
     0
 10
10.582
 20
57.7053
 30
0.0
 11
10.582
 21
54.6047
 31
0.0
  0
LINE
  8
0
 62
     0
 10
10.582
 20
54.6047
 30
0.0
 11
11.3812
 21
54.6047
 31
0.0
  0
LINE
  8
0
 62
     0
 10
11.3812
 20
54.6047
 30
0.0
 11
11.3812
 21
48.8047
 31
0.0
  0
LINE
  8
0
 62
     0
 10
11.3812
 20
48.8047
 30
0.0
 11
10.582
 21
48.8047
 31
0.0
  0
LINE
  8
0
 62
     0
 10
10.582
 20
48.8047
 30
0.0
 11
10.582
 21
45.7055
 31
0.0
  0
LINE
  8
0
 62
     0
 10
10.582
 20
45.7055
 30
0.0
 11
11.3812
 21
45.7055
 31
0.0
  0
LINE
  8
0
 62
     0
 10
11.3812
 20
45.7055
 30
0.0
 11
11.3812
 21
44.7051
 31
0.0
  0
LINE
  8
0
 62
     0
 10
11.3812
 20
44.7051
 30
0.0
 11
25.3821
 21
44.7051
 31
0.0
  0
LINE
  8
0
 62
     0
 10
25.3821
 20
44.7051
 30
0.0
 11
25.3821
 21
45.7055
 31
0.0
  0
LINE
  8
0
 62
     0
 10
25.3821
 20
45.7055
 30
0.0
 11
26.1813
 21
45.7055
 31
0.0
  0
LINE
  8
0
 62
     0
 10
26.1813
 20
45.7055
 30
0.0
 11
26.1813
 21
48.8047
 31
0.0
  0
LINE
  8
0
 62
     0
 10
26.1813
 20
48.8047
 30
0.0
 11
25.3821
 21
48.8047
 31
0.0
  0
LINE
  8
0
 62
     0
 10
25.3821
 20
48.8047
 30
0.0
 11
25.3821
 21
54.6047
 31
0.0
  0
LINE
  8
0
 62
     0
 10
25.3821
 20
54.6047
 30
0.0
 11
26.1813
 21
54.6047
 31
0.0
  0
LINE
  8
0
 62
     0
 10
26.1813
 20
54.6047
 30
0.0
 11
26.1813
 21
57.7053
 31
0.0
  0
LINE
  8
0
 62
     0
 10
26.1813
 20
57.7053
 30
0.0
 11
25.3821
 21
57.7053
 31
0.0
  0
LINE
  8
0
 62
     0
 10
25.3821
 20
57.7053
 30
0.0
 11
25.3821
 21
58.7043
 31
0.0
  0
LINE
  8
0
 62
     0
 10
25.3821
 20
58.7043
 30
0.0
 11
11.3812
 21
58.7043
 31
0.0
  0
LINE
  8
0
 62
     0
 10
30.4312
 20
58.7043
 30
0.0
 11
30.4312
 21
57.7053
 31
0.0
  0
LINE
  8
0
 62
     0
 10
30.4312
 20
57.7053
 30
0.0
 11
29.632
 21
57.7053
 31
0.0
  0
LINE
  8
0
 62
     0
 10
29.632
 20
57.7053
 30
0.0
 11
29.632
 21
54.6047
 31
0.0
  0
LINE
  8
0
 62
     0
 10
29.632
 20
54.6047
 30
0.0
 11
30.4312
 21
54.6047
 31
0.0
  0
LINE
  8
0
 62
     0
 10
30.4312
 20
54.6047
 30
0.0
 11
30.4312
 21
48.8047
 31
0.0
  0
LINE
  8
0
 62
     0
 10
30.4312
 20
48.8047
 30
0.0
 11
29.632
 21
48.8047
 31
0.0
  0
LINE
  8
0
 62
     0
 10
29.632
 20
48.8047
 30
0.0
 11
29.632
 21
45.7055
 31
0.0
  0
LINE
  8
0
 62
     0
 10
29.632
 20
45.7055
 30
0.0
 11
30.4312
 21
45.7055
 31
0.0
  0
LINE
  8
0
 62
     0
 10
30.4312
 20
45.7055
 30
0.0
 11
30.4312
 21
44.7051
 31
0.0
  0
LINE
  8
0
 62
     0
 10
30.4312
 20
44.7051
 30
0.0
 11
44.432
 21
44.7051
 31
0.0
  0
LINE
  8
0
 62
     0
 10
44.432
 20
44.7051
 30
0.0
 11
44.432
 21
45.7055
 31
0.0
  0
LINE
  8
0
 62
     0
 10
44.432
 20
45.7055
 30
0.0
 11
45.2314
 21
45.7055
 31
0.0
  0
LINE
  8
0
 62
     0
 10
45.2314
 20
45.7055
 30
0.0
 11
45.2314
 21
48.8047
 31
0.0
  0
LINE
  8
0
 62
     0
 10
45.2314
 20
48.8047
 30
0.0
 11
44.432
 21
48.8047
 31
0.0
  0
LINE
  8
0
 62
     0
 10
44.432
 20
48.8047
 30
0.0
 11
44.432
 21
54.6047
 31
0.0
  0
LINE
  8
0
 62
     0
 10
44.432
 20
54.6047
 30
0.0
 11
45.2314
 21
54.6047
 31
0.0
  0
LINE
  8
0
 62
     0
 10
45.2314
 20
54.6047
 30
0.0
 11
45.2314
 21
57.7053
 31
0.0
  0
LINE
  8
0
 62
     0
 10
45.2314
 20
57.7053
 30
0.0
 11
44.432
 21
57.7053
 31
0.0
  0
LINE
  8
0
 62
     0
 10
44.432
 20
57.7053
 30
0.0
 11
44.432
 21
58.7043
 31
0.0
  0
LINE
  8
0
 62
     0
 10
44.432
 20
58.7043
 30
0.0
 11
30.4312
 21
58.7043
 31
0.0
  0
LINE
  8
0
 62
     0
 10
49.4813
 20
58.7043
 30
0.0
 11
49.4813
 21
57.7053
 31
0.0
  0
LINE
  8
0
 62
     0
 10
49.4813
 20
57.7053
 30
0.0
 11
48.6819
 21
57.7053
 31
0.0
  0
LINE
  8
0
 62
     0
 10
48.6819
 20
57.7053
 30
0.0
 11
48.6819
 21
54.6047
 31
0.0
  0
LINE
  8
0
 62
     0
 10
48.6819
 20
54.6047
 30
0.0
 11
49.4813
 21
54.6047
 31
0.0
  0
LINE
  8
0
 62
     0
 10
49.4813
 20
54.6047
 30
0.0
 11
49.4813
 21
48.8047
 31
0.0
  0
LINE
  8
0
 62
     0
 10
49.4813
 20
48.8047
 30
0.0
 11
48.6819
 21
48.8047
 31
0.0
  0
LINE
  8
0
 62
     0
 10
48.6819
 20
48.8047
 30
0.0
 11
48.6819
 21
45.7055
 31
0.0
  0
LINE
  8
0
 62
     0
 10
48.6819
 20
45.7055
 30
0.0
 11
49.4813
 21
45.7055
 31
0.0
  0
LINE
  8
0
 62
     0
 10
49.4813
 20
45.7055
 30
0.0
 11
49.4813
 21
44.7051
 31
0.0
  0
LINE
  8
0
 62
     0
 10
49.4813
 20
44.7051
 30
0.0
 11
63.482
 21
44.7051
 31
0.0
  0
LINE
  8
0
 62
     0
 10
63.482
 20
44.7051
 30
0.0
 11
63.482
 21
45.7055
 31
0.0
  0
LINE
  8
0
 62
     0
 10
63.482
 20
45.7055
 30
0.0
 11
64.2814
 21
45.7055
 31
0.0
  0
LINE
  8
0
 62
     0
 10
64.2814
 20
45.7055
 30
0.0
 11
64.2814
 21
48.8047
 31
0.0
  0
LINE
  8
0
 62
     0
 10
64.2814
 20
48.8047
 30
0.0
 11
63.482
 21
48.8047
 31
0.0
  0
LINE
  8
0
 62
     0
 10
63.482
 20
48.8047
 30
0.0
 11
63.482
 21
54.6047
 31
0.0
  0
LINE
  8
0
 62
     0
 10
63.482
 20
54.6047
 30
0.0
 11
64.2814
 21
54.6047
 31
0.0
  0
LINE
  8
0
 62
     0
 10
64.2814
 20
54.6047
 30
0.0
 11
64.2814
 21
57.7053
 31
0.0
  0
LINE
  8
0
 62
     0
 10
64.2814
 20
57.7053
 30
0.0
 11
63.482
 21
57.7053
 31
0.0
  0
LINE
  8
0
 62
     0
 10
63.482
 20
57.7053
 30
0.0
 11
63.482
 21
58.7043
 31
0.0
  0
LINE
  8
0
 62
     0
 10
63.482
 20
58.7043
 30
0.0
 11
49.4813
 21
58.7043
 31
0.0
  0
LINE
  8
0
 62
     0
 10
68.5313
 20
58.7043
 30
0.0
 11
68.5313
 21
57.7053
 31
0.0
  0
LINE
  8
0
 62
     0
 10
68.5313
 20
57.7053
 30
0.0
 11
67.7319
 21
57.7053
 31
0.0
  0
LINE
  8
0
 62
     0
 10
67.7319
 20
57.7053
 30
0.0
 11
67.7319
 21
54.6047
 31
0.0
  0
LINE
  8
0
 62
     0
 10
67.7319
 20
54.6047
 30
0.0
 11
68.5313
 21
54.6047
 31
0.0
  0
LINE
  8
0
 62
     0
 10
68.5313
 20
54.6047
 30
0.0
 11
68.5313
 21
48.8047
 31
0.0
  0
LINE
  8
0
 62
     0
 10
68.5313
 20
48.8047
 30
0.0
 11
67.7319
 21
48.8047
 31
0.0
  0
LINE
  8
0
 62
     0
 10
67.7319
 20
48.8047
 30
0.0
 11
67.7319
 21
45.7055
 31
0.0
  0
LINE
  8
0
 62
     0
 10
67.7319
 20
45.7055
 30
0.0
 11
68.5313
 21
45.7055
 31
0.0
  0
LINE
  8
0
 62
     0
 10
68.5313
 20
45.7055
 30
0.0
 11
68.5313
 21
44.7051
 31
0.0
  0
LINE
  8
0
 62
     0
 10
68.5313
 20
44.7051
 30
0.0
 11
82.532
 21
44.7051
 31
0.0
  0
LINE
  8
0
 62
     0
 10
82.532
 20
44.7051
 30
0.0
 11
82.532
 21
45.7055
 31
0.0
  0
LINE
  8
0
 62
     0
 10
82.532
 20
45.7055
 30
0.0
 11
83.3314
 21
45.7055
 31
0.0
  0
LINE
  8
0
 62
     0
 10
83.3314
 20
45.7055
 30
0.0
 11
83.3314
 21
48.8047
 31
0.0
  0
LINE
  8
0
 62
     0
 10
83.3314
 20
48.8047
 30
0.0
 11
82.532
 21
48.8047
 31
0.0
  0
LINE
  8
0
 62
     0
 10
82.532
 20
48.8047
 30
0.0
 11
82.532
 21
54.6047
 31
0.0
  0
LINE
  8
0
 62
     0
 10
82.532
 20
54.6047
 30
0.0
 11
83.3314
 21
54.6047
 31
0.0
  0
LINE
  8
0
 62
     0
 10
83.3314
 20
54.6047
 30
0.0
 11
83.3314
 21
57.7053
 31
0.0
  0
LINE
  8
0
 62
     0
 10
83.3314
 20
57.7053
 30
0.0
 11
82.532
 21
57.7053
 31
0.0
  0
LINE
  8
0
 62
     0
 10
82.532
 20
57.7053
 30
0.0
 11
82.532
 21
58.7043
 31
0.0
  0
LINE
  8
0
 62
     0
 10
82.532
 20
58.7043
 30
0.0
 11
68.5313
 21
58.7043
 31
0.0
  0
LINE
  8
0
 62
     0
 10
87.5813
 20
58.7043
 30
0.0
 11
87.5813
 21
57.7053
 31
0.0
  0
LINE
  8
0
 62
     0
 10
87.5813
 20
57.7053
 30
0.0
 11
86.7819
 21
57.7053
 31
0.0
  0
LINE
  8
0
 62
     0
 10
86.7819
 20
57.7053
 30
0.0
 11
86.7819
 21
54.6047
 31
0.0
  0
LINE
  8
0
 62
     0
 10
86.7819
 20
54.6047
 30
0.0
 11
87.5813
 21
54.6047
 31
0.0
  0
LINE
  8
0
 62
     0
 10
87.5813
 20
54.6047
 30
0.0
 11
87.5813
 21
48.8047
 31
0.0
  0
LINE
  8
0
 62
     0
 10
87.5813
 20
48.8047
 30
0.0
 11
86.7819
 21
48.8047
 31
0.0
  0
LINE
  8
0
 62
     0
 10
86.7819
 20
48.8047
 30
0.0
 11
86.7819
 21
45.7055
 31
0.0
  0
LINE
  8
0
 62
     0
 10
86.7819
 20
45.7055
 30
0.0
 11
87.5813
 21
45.7055
 31
0.0
  0
LINE
  8
0
 62
     0
 10
87.5813
 20
45.7055
 30
0.0
 11
87.5813
 21
44.7051
 31
0.0
  0
LINE
  8
0
 62
     0
 10
87.5813
 20
44.7051
 30
0.0
 11
101.582
 21
44.7051
 31
0.0
  0
LINE
  8
0
 62
     0
 10
101.582
 20
44.7051
 30
0.0
 11
101.582
 21
45.7055
 31
0.0
  0
LINE
  8
0
 62
     0
 10
101.582
 20
45.7055
 30
0.0
 11
102.381
 21
45.7055
 31
0.0
  0
LINE
  8
0
 62
     0
 10
102.381
 20
45.7055
 30
0.0
 11
102.381
 21
48.8047
 31
0.0
  0
LINE
  8
0
 62
     0
 10
102.381
 20
48.8047
 30
0.0
 11
101.582
 21
48.8047
 31
0.0
  0
LINE
  8
0
 62
     0
 10
101.582
 20
48.8047
 30
0.0
 11
101.582
 21
54.6047
 31
0.0
  0
LINE
  8
0
 62
     0
 10
101.582
 20
54.6047
 30
0.0
 11
102.381
 21
54.6047
 31
0.0
  0
LINE
  8
0
 62
     0
 10
102.381
 20
54.6047
 30
0.0
 11
102.381
 21
57.7053
 31
0.0
  0
LINE
  8
0
 62
     0
 10
102.381
 20
57.7053
 30
0.0
 11
101.582
 21
57.7053
 31
0.0
  0
LINE
  8
0
 62
     0
 10
101.582
 20
57.7053
 30
0.0
 11
101.582
 21
58.7043
 31
0.0
  0
LINE
  8
0
 62
     0
 10
101.582
 20
58.7043
 30
0.0
 11
87.5813
 21
58.7043
 31
0.0
  0
LINE
  8
0
 62
     0
 10
106.631
 20
58.7043
 30
0.0
 11
106.631
 21
57.7053
 31
0.0
  0
LINE
  8
0
 62
     0
 10
106.631
 20
57.7053
 30
0.0
 11
105.832
 21
57.7053
 31
0.0
  0
LINE
  8
0
 62
     0
 10
105.832
 20
57.7053
 30
0.0
 11
105.832
 21
54.6047
 31
0.0
  0
LINE
  8
0
 62
     0
 10
105.832
 20
54.6047
 30
0.0
 11
106.631
 21
54.6047
 31
0.0
  0
LINE
  8
0
 62
     0
 10
106.631
 20
54.6047
 30
0.0
 11
106.631
 21
48.8047
 31
0.0
  0
LINE
  8
0
 62
     0
 10
106.631
 20
48.8047
 30
0.0
 11
105.832
 21
48.8047
 31
0.0
  0
LINE
  8
0
 62
     0
 10
105.832
 20
48.8047
 30
0.0
 11
105.832
 21
45.7055
 31
0.0
  0
LINE
  8
0
 62
     0
 10
105.832
 20
45.7055
 30
0.0
 11
106.631
 21
45.7055
 31
0.0
  0
LINE
  8
0
 62
     0
 10
106.631
 20
45.7055
 30
0.0
 11
106.631
 21
44.7051
 31
0.0
  0
LINE
  8
0
 62
     0
 10
106.631
 20
44.7051
 30
0.0
 11
120.632
 21
44.7051
 31
0.0
  0
LINE
  8
0
 62
     0
 10
120.632
 20
44.7051
 30
0.0
 11
120.632
 21
45.7055
 31
0.0
  0
LINE
  8
0
 62
     0
 10
120.632
 20
45.7055
 30
0.0
 11
121.431
 21
45.7055
 31
0.0
  0
LINE
  8
0
 62
     0
 10
121.431
 20
45.7055
 30
0.0
 11
121.431
 21
48.8047
 31
0.0
  0
LINE
  8
0
 62
     0
 10
121.431
 20
48.8047
 30
0.0
 11
120.632
 21
48.8047
 31
0.0
  0
LINE
  8
0
 62
     0
 10
120.632
 20
48.8047
 30
0.0
 11
120.632
 21
54.6047
 31
0.0
  0
LINE
  8
0
 62
     0
 10
120.632
 20
54.6047
 30
0.0
 11
121.431
 21
54.6047
 31
0.0
  0
LINE
  8
0
 62
     0
 10
121.431
 20
54.6047
 30
0.0
 11
121.431
 21
57.7053
 31
0.0
  0
LINE
  8
0
 62
     0
 10
121.431
 20
57.7053
 30
0.0
 11
120.632
 21
57.7053
 31
0.0
  0
LINE
  8
0
 62
     0
 10
120.632
 20
57.7053
 30
0.0
 11
120.632
 21
58.7043
 31
0.0
  0
LINE
  8
0
 62
     0
 10
120.632
 20
58.7043
 30
0.0
 11
106.631
 21
58.7043
 31
0.0
  0
LINE
  8
0
 62
     0
 10
16.1451
 20
77.7558
 30
0.0
 11
16.1451
 21
76.7553
 31
0.0
  0
LINE
  8
0
 62
     0
 10
16.1451
 20
76.7553
 30
0.0
 11
15.3445
 21
76.7553
 31
0.0
  0
LINE
  8
0
 62
     0
 10
15.3445
 20
76.7553
 30
0.0
 11
15.3445
 21
73.6561
 31
0.0
  0
LINE
  8
0
 62
     0
 10
15.3445
 20
73.6561
 30
0.0
 11
16.1451
 21
73.6561
 31
0.0
  0
LINE
  8
0
 62
     0
 10
16.1451
 20
73.6561
 30
0.0
 11
16.1451
 21
67.8561
 31
0.0
  0
LINE
  8
0
 62
     0
 10
16.1451
 20
67.8561
 30
0.0
 11
15.3445
 21
67.8561
 31
0.0
  0
LINE
  8
0
 62
     0
 10
15.3445
 20
67.8561
 30
0.0
 11
15.3445
 21
64.7555
 31
0.0
  0
LINE
  8
0
 62
     0
 10
15.3445
 20
64.7555
 30
0.0
 11
16.1451
 21
64.7555
 31
0.0
  0
LINE
  8
0
 62
     0
 10
16.1451
 20
64.7555
 30
0.0
 11
16.1451
 21
63.7551
 31
0.0
  0
LINE
  8
0
 62
     0
 10
16.1451
 20
63.7551
 30
0.0
 11
30.1446
 21
63.7551
 31
0.0
  0
LINE
  8
0
 62
     0
 10
30.1446
 20
63.7551
 30
0.0
 11
30.1446
 21
64.7555
 31
0.0
  0
LINE
  8
0
 62
     0
 10
30.1446
 20
64.7555
 30
0.0
 11
30.9452
 21
64.7555
 31
0.0
  0
LINE
  8
0
 62
     0
 10
30.9452
 20
64.7555
 30
0.0
 11
30.9452
 21
67.8561
 31
0.0
  0
LINE
  8
0
 62
     0
 10
30.9452
 20
67.8561
 30
0.0
 11
30.1446
 21
67.8561
 31
0.0
  0
LINE
  8
0
 62
     0
 10
30.1446
 20
67.8561
 30
0.0
 11
30.1446
 21
73.6561
 31
0.0
  0
LINE
  8
0
 62
     0
 10
30.1446
 20
73.6561
 30
0.0
 11
30.9452
 21
73.6561
 31
0.0
  0
LINE
  8
0
 62
     0
 10
30.9452
 20
73.6561
 30
0.0
 11
30.9452
 21
76.7553
 31
0.0
  0
LINE
  8
0
 62
     0
 10
30.9452
 20
76.7553
 30
0.0
 11
30.1446
 21
76.7553
 31
0.0
  0
LINE
  8
0
 62
     0
 10
30.1446
 20
76.7553
 30
0.0
 11
30.1446
 21
77.7558
 31
0.0
  0
LINE
  8
0
 62
     0
 10
30.1446
 20
77.7558
 30
0.0
 11
16.1451
 21
77.7558
 31
0.0
  0
LINE
  8
0
 62
     0
 10
35.1951
 20
77.7558
 30
0.0
 11
35.1951
 21
76.7553
 31
0.0
  0
LINE
  8
0
 62
     0
 10
35.1951
 20
76.7553
 30
0.0
 11
34.3945
 21
76.7553
 31
0.0
  0
LINE
  8
0
 62
     0
 10
34.3945
 20
76.7553
 30
0.0
 11
34.3945
 21
73.6561
 31
0.0
  0
LINE
  8
0
 62
     0
 10
34.3945
 20
73.6561
 30
0.0
 11
35.1951
 21
73.6561
 31
0.0
  0
LINE
  8
0
 62
     0
 10
35.1951
 20
73.6561
 30
0.0
 11
35.1951
 21
67.8561
 31
0.0
  0
LINE
  8
0
 62
     0
 10
35.1951
 20
67.8561
 30
0.0
 11
34.3945
 21
67.8561
 31
0.0
  0
LINE
  8
0
 62
     0
 10
34.3945
 20
67.8561
 30
0.0
 11
34.3945
 21
64.7555
 31
0.0
  0
LINE
  8
0
 62
     0
 10
34.3945
 20
64.7555
 30
0.0
 11
35.1951
 21
64.7555
 31
0.0
  0
LINE
  8
0
 62
     0
 10
35.1951
 20
64.7555
 30
0.0
 11
35.1951
 21
63.7551
 31
0.0
  0
LINE
  8
0
 62
     0
 10
35.1951
 20
63.7551
 30
0.0
 11
49.1945
 21
63.7551
 31
0.0
  0
LINE
  8
0
 62
     0
 10
49.1945
 20
63.7551
 30
0.0
 11
49.1945
 21
64.7555
 31
0.0
  0
LINE
  8
0
 62
     0
 10
49.1945
 20
64.7555
 30
0.0
 11
49.9953
 21
64.7555
 31
0.0
  0
LINE
  8
0
 62
     0
 10
49.9953
 20
64.7555
 30
0.0
 11
49.9953
 21
67.8561
 31
0.0
  0
LINE
  8
0
 62
     0
 10
49.9953
 20
67.8561
 30
0.0
 11
49.1945
 21
67.8561
 31
0.0
  0
LINE
  8
0
 62
     0
 10
49.1945
 20
67.8561
 30
0.0
 11
49.1945
 21
73.6561
 31
0.0
  0
LINE
  8
0
 62
     0
 10
49.1945
 20
73.6561
 30
0.0
 11
49.9953
 21
73.6561
 31
0.0
  0
LINE
  8
0
 62
     0
 10
49.9953
 20
73.6561
 30
0.0
 11
49.9953
 21
76.7553
 31
0.0
  0
LINE
  8
0
 62
     0
 10
49.9953
 20
76.7553
 30
0.0
 11
49.1945
 21
76.7553
 31
0.0
  0
LINE
  8
0
 62
     0
 10
49.1945
 20
76.7553
 30
0.0
 11
49.1945
 21
77.7558
 31
0.0
  0
LINE
  8
0
 62
     0
 10
49.1945
 20
77.7558
 30
0.0
 11
35.1951
 21
77.7558
 31
0.0
  0
LINE
  8
0
 62
     0
 10
54.2452
 20
77.7558
 30
0.0
 11
54.2452
 21
76.7553
 31
0.0
  0
LINE
  8
0
 62
     0
 10
54.2452
 20
76.7553
 30
0.0
 11
53.4444
 21
76.7553
 31
0.0
  0
LINE
  8
0
 62
     0
 10
53.4444
 20
76.7553
 30
0.0
 11
53.4444
 21
73.6561
 31
0.0
  0
LINE
  8
0
 62
     0
 10
53.4444
 20
73.6561
 30
0.0
 11
54.2452
 21
73.6561
 31
0.0
  0
LINE
  8
0
 62
     0
 10
54.2452
 20
73.6561
 30
0.0
 11
54.2452
 21
67.8561
 31
0.0
  0
LINE
  8
0
 62
     0
 10
54.2452
 20
67.8561
 30
0.0
 11
53.4444
 21
67.8561
 31
0.0
  0
LINE
  8
0
 62
     0
 10
53.4444
 20
67.8561
 30
0.0
 11
53.4444
 21
64.7555
 31
0.0
  0
LINE
  8
0
 62
     0
 10
53.4444
 20
64.7555
 30
0.0
 11
54.2452
 21
64.7555
 31
0.0
  0
LINE
  8
0
 62
     0
 10
54.2452
 20
64.7555
 30
0.0
 11
54.2452
 21
63.7551
 31
0.0
  0
LINE
  8
0
 62
     0
 10
54.2452
 20
63.7551
 30
0.0
 11
68.2445
 21
63.7551
 31
0.0
  0
LINE
  8
0
 62
     0
 10
68.2445
 20
63.7551
 30
0.0
 11
68.2445
 21
64.7555
 31
0.0
  0
LINE
  8
0
 62
     0
 10
68.2445
 20
64.7555
 30
0.0
 11
69.0453
 21
64.7555
 31
0.0
  0
LINE
  8
0
 62
     0
 10
69.0453
 20
64.7555
 30
0.0
 11
69.0453
 21
67.8561
 31
0.0
  0
LINE
  8
0
 62
     0
 10
69.0453
 20
67.8561
 30
0.0
 11
68.2445
 21
67.8561
 31
0.0
  0
LINE
  8
0
 62
     0
 10
68.2445
 20
67.8561
 30
0.0
 11
68.2445
 21
73.6561
 31
0.0
  0
LINE
  8
0
 62
     0
 10
68.2445
 20
73.6561
 30
0.0
 11
69.0453
 21
73.6561
 31
0.0
  0
LINE
  8
0
 62
     0
 10
69.0453
 20
73.6561
 30
0.0
 11
69.0453
 21
76.7553
 31
0.0
  0
LINE
  8
0
 62
     0
 10
69.0453
 20
76.7553
 30
0.0
 11
68.2445
 21
76.7553
 31
0.0
  0
LINE
  8
0
 62
     0
 10
68.2445
 20
76.7553
 30
0.0
 11
68.2445
 21
77.7558
 31
0.0
  0
LINE
  8
0
 62
     0
 10
68.2445
 20
77.7558
 30
0.0
 11
54.2452
 21
77.7558
 31
0.0
  0
LINE
  8
0
 62
     0
 10
73.2952
 20
77.7558
 30
0.0
 11
73.2952
 21
76.7553
 31
0.0
  0
LINE
  8
0
 62
     0
 10
73.2952
 20
76.7553
 30
0.0
 11
72.4944
 21
76.7553
 31
0.0
  0
LINE
  8
0
 62
     0
 10
72.4944
 20
76.7553
 30
0.0
 11
72.4944
 21
73.6561
 31
0.0
  0
LINE
  8
0
 62
     0
 10
72.4944
 20
73.6561
 30
0.0
 11
73.2952
 21
73.6561
 31
0.0
  0
LINE
  8
0
 62
     0
 10
73.2952
 20
73.6561
 30
0.0
 11
73.2952
 21
67.8561
 31
0.0
  0
LINE
  8
0
 62
     0
 10
73.2952
 20
67.8561
 30
0.0
 11
72.4944
 21
67.8561
 31
0.0
  0
LINE
  8
0
 62
     0
 10
72.4944
 20
67.8561
 30
0.0
 11
72.4944
 21
64.7555
 31
0.0
  0
LINE
  8
0
 62
     0
 10
72.4944
 20
64.7555
 30
0.0
 11
73.2952
 21
64.7555
 31
0.0
  0
LINE
  8
0
 62
     0
 10
73.2952
 20
64.7555
 30
0.0
 11
73.2952
 21
63.7551
 31
0.0
  0
LINE
  8
0
 62
     0
 10
73.2952
 20
63.7551
 30
0.0
 11
87.2945
 21
63.7551
 31
0.0
  0
LINE
  8
0
 62
     0
 10
87.2945
 20
63.7551
 30
0.0
 11
87.2945
 21
64.7555
 31
0.0
  0
LINE
  8
0
 62
     0
 10
87.2945
 20
64.7555
 30
0.0
 11
88.0953
 21
64.7555
 31
0.0
  0
LINE
  8
0
 62
     0
 10
88.0953
 20
64.7555
 30
0.0
 11
88.0953
 21
67.8561
 31
0.0
  0
LINE
  8
0
 62
     0
 10
88.0953
 20
67.8561
 30
0.0
 11
87.2945
 21
67.8561
 31
0.0
  0
LINE
  8
0
 62
     0
 10
87.2945
 20
67.8561
 30
0.0
 11
87.2945
 21
73.6561
 31
0.0
  0
LINE
  8
0
 62
     0
 10
87.2945
 20
73.6561
 30
0.0
 11
88.0953
 21
73.6561
 31
0.0
  0
LINE
  8
0
 62
     0
 10
88.0953
 20
73.6561
 30
0.0
 11
88.0953
 21
76.7553
 31
0.0
  0
LINE
  8
0
 62
     0
 10
88.0953
 20
76.7553
 30
0.0
 11
87.2945
 21
76.7553
 31
0.0
  0
LINE
  8
0
 62
     0
 10
87.2945
 20
76.7553
 30
0.0
 11
87.2945
 21
77.7558
 31
0.0
  0
LINE
  8
0
 62
     0
 10
87.2945
 20
77.7558
 30
0.0
 11
73.2952
 21
77.7558
 31
0.0
  0
LINE
  8
0
 62
     0
 10
92.3452
 20
77.7558
 30
0.0
 11
92.3452
 21
76.7553
 31
0.0
  0
LINE
  8
0
 62
     0
 10
92.3452
 20
76.7553
 30
0.0
 11
91.5444
 21
76.7553
 31
0.0
  0
LINE
  8
0
 62
     0
 10
91.5444
 20
76.7553
 30
0.0
 11
91.5444
 21
73.6561
 31
0.0
  0
LINE
  8
0
 62
     0
 10
91.5444
 20
73.6561
 30
0.0
 11
92.3452
 21
73.6561
 31
0.0
  0
LINE
  8
0
 62
     0
 10
92.3452
 20
73.6561
 30
0.0
 11
92.3452
 21
67.8561
 31
0.0
  0
LINE
  8
0
 62
     0
 10
92.3452
 20
67.8561
 30
0.0
 11
91.5444
 21
67.8561
 31
0.0
  0
LINE
  8
0
 62
     0
 10
91.5444
 20
67.8561
 30
0.0
 11
91.5444
 21
64.7555
 31
0.0
  0
LINE
  8
0
 62
     0
 10
91.5444
 20
64.7555
 30
0.0
 11
92.3452
 21
64.7555
 31
0.0
  0
LINE
  8
0
 62
     0
 10
92.3452
 20
64.7555
 30
0.0
 11
92.3452
 21
63.7551
 31
0.0
  0
LINE
  8
0
 62
     0
 10
92.3452
 20
63.7551
 30
0.0
 11
106.345
 21
63.7551
 31
0.0
  0
LINE
  8
0
 62
     0
 10
106.345
 20
63.7551
 30
0.0
 11
106.345
 21
64.7555
 31
0.0
  0
LINE
  8
0
 62
     0
 10
106.345
 20
64.7555
 30
0.0
 11
107.145
 21
64.7555
 31
0.0
  0
LINE
  8
0
 62
     0
 10
107.145
 20
64.7555
 30
0.0
 11
107.145
 21
67.8561
 31
0.0
  0
LINE
  8
0
 62
     0
 10
107.145
 20
67.8561
 30
0.0
 11
106.345
 21
67.8561
 31
0.0
  0
LINE
  8
0
 62
     0
 10
106.345
 20
67.8561
 30
0.0
 11
106.345
 21
73.6561
 31
0.0
  0
LINE
  8
0
 62
     0
 10
106.345
 20
73.6561
 30
0.0
 11
107.145
 21
73.6561
 31
0.0
  0
LINE
  8
0
 62
     0
 10
107.145
 20
73.6561
 30
0.0
 11
107.145
 21
76.7553
 31
0.0
  0
LINE
  8
0
 62
     0
 10
107.145
 20
76.7553
 30
0.0
 11
106.345
 21
76.7553
 31
0.0
  0
LINE
  8
0
 62
     0
 10
106.345
 20
76.7553
 30
0.0
 11
106.345
 21
77.7558
 31
0.0
  0
LINE
  8
0
 62
     0
 10
106.345
 20
77.7558
 30
0.0
 11
92.3452
 21
77.7558
 31
0.0
  0
LINE
  8
0
 62
     0
 10
111.395
 20
77.7558
 30
0.0
 11
111.395
 21
76.7553
 31
0.0
  0
LINE
  8
0
 62
     0
 10
111.395
 20
76.7553
 30
0.0
 11
110.594
 21
76.7553
 31
0.0
  0
LINE
  8
0
 62
     0
 10
110.594
 20
76.7553
 30
0.0
 11
110.594
 21
73.6561
 31
0.0
  0
LINE
  8
0
 62
     0
 10
110.594
 20
73.6561
 30
0.0
 11
111.395
 21
73.6561
 31
0.0
  0
LINE
  8
0
 62
     0
 10
111.395
 20
73.6561
 30
0.0
 11
111.395
 21
67.8561
 31
0.0
  0
LINE
  8
0
 62
     0
 10
111.395
 20
67.8561
 30
0.0
 11
110.594
 21
67.8561
 31
0.0
  0
LINE
  8
0
 62
     0
 10
110.594
 20
67.8561
 30
0.0
 11
110.594
 21
64.7555
 31
0.0
  0
LINE
  8
0
 62
     0
 10
110.594
 20
64.7555
 30
0.0
 11
111.395
 21
64.7555
 31
0.0
  0
LINE
  8
0
 62
     0
 10
111.395
 20
64.7555
 30
0.0
 11
111.395
 21
63.7551
 31
0.0
  0
LINE
  8
0
 62
     0
 10
111.395
 20
63.7551
 30
0.0
 11
125.395
 21
63.7551
 31
0.0
  0
LINE
  8
0
 62
     0
 10
125.395
 20
63.7551
 30
0.0
 11
125.395
 21
64.7555
 31
0.0
  0
LINE
  8
0
 62
     0
 10
125.395
 20
64.7555
 30
0.0
 11
126.195
 21
64.7555
 31
0.0
  0
LINE
  8
0
 62
     0
 10
126.195
 20
64.7555
 30
0.0
 11
126.195
 21
67.8561
 31
0.0
  0
LINE
  8
0
 62
     0
 10
126.195
 20
67.8561
 30
0.0
 11
125.395
 21
67.8561
 31
0.0
  0
LINE
  8
0
 62
     0
 10
125.395
 20
67.8561
 30
0.0
 11
125.395
 21
73.6561
 31
0.0
  0
LINE
  8
0
 62
     0
 10
125.395
 20
73.6561
 30
0.0
 11
126.195
 21
73.6561
 31
0.0
  0
LINE
  8
0
 62
     0
 10
126.195
 20
73.6561
 30
0.0
 11
126.195
 21
76.7553
 31
0.0
  0
LINE
  8
0
 62
     0
 10
126.195
 20
76.7553
 30
0.0
 11
125.395
 21
76.7553
 31
0.0
  0
LINE
  8
0
 62
     0
 10
125.395
 20
76.7553
 30
0.0
 11
125.395
 21
77.7558
 31
0.0
  0
LINE
  8
0
 62
     0
 10
125.395
 20
77.7558
 30
0.0
 11
111.395
 21
77.7558
 31
0.0
  0
LINE
  8
0
 62
     0
 10
70.4303
 20
83.3272
 30
0.0
 11
70.1227
 21
83.1702
 31
0.0
  0
LINE
  8
0
 62
     0
 10
70.1227
 20
83.1702
 30
0.0
 11
69.8803
 21
82.9261
 31
0.0
  0
LINE
  8
0
 62
     0
 10
69.8803
 20
82.9261
 30
0.0
 11
69.7234
 21
82.6202
 31
0.0
  0
LINE
  8
0
 62
     0
 10
69.7234
 20
82.6202
 30
0.0
 11
69.6694
 21
82.2798
 31
0.0
  0
LINE
  8
0
 62
     0
 10
69.6694
 20
82.2798
 30
0.0
 11
69.7234
 21
81.9408
 31
0.0
  0
LINE
  8
0
 62
     0
 10
69.7234
 20
81.9408
 30
0.0
 11
69.8803
 21
81.6335
 31
0.0
  0
LINE
  8
0
 62
     0
 10
69.8803
 20
81.6335
 30
0.0
 11
70.1227
 21
81.3911
 31
0.0
  0
LINE
  8
0
 62
     0
 10
70.1227
 20
81.3911
 30
0.0
 11
70.4303
 21
81.2352
 31
0.0
  0
LINE
  8
0
 62
     0
 10
70.4303
 20
81.2352
 30
0.0
 11
70.769
 21
81.1802
 31
0.0
  0
LINE
  8
0
 62
     0
 10
70.769
 20
81.1802
 30
0.0
 11
71.1094
 21
81.2352
 31
0.0
  0
LINE
  8
0
 62
     0
 10
71.1094
 20
81.2352
 30
0.0
 11
71.4167
 21
81.3911
 31
0.0
  0
LINE
  8
0
 62
     0
 10
71.4167
 20
81.3911
 30
0.0
 11
71.6594
 21
81.6335
 31
0.0
  0
LINE
  8
0
 62
     0
 10
71.6594
 20
81.6335
 30
0.0
 11
71.815
 21
81.9408
 31
0.0
  0
LINE
  8
0
 62
     0
 10
71.815
 20
81.9408
 30
0.0
 11
71.8704
 21
82.2798
 31
0.0
  0
LINE
  8
0
 62
     0
 10
71.8704
 20
82.2798
 30
0.0
 11
71.815
 21
82.6202
 31
0.0
  0
LINE
  8
0
 62
     0
 10
71.815
 20
82.6202
 30
0.0
 11
71.6594
 21
82.9261
 31
0.0
  0
LINE
  8
0
 62
     0
 10
71.6594
 20
82.9261
 30
0.0
 11
71.4167
 21
83.1702
 31
0.0
  0
LINE
  8
0
 62
     0
 10
71.4167
 20
83.1702
 30
0.0
 11
71.1094
 21
83.3272
 31
0.0
  0
LINE
  8
0
 62
     0
 10
71.1094
 20
83.3272
 30
0.0
 11
70.769
 21
83.3797
 31
0.0
  0
LINE
  8
0
 62
     0
 10
70.769
 20
83.3797
 30
0.0
 11
70.4303
 21
83.3272
 31
0.0
  0
LINE
  8
0
 62
     0
 10
139.106
 20
83.3272
 30
0.0
 11
138.799
 21
83.1702
 31
0.0
  0
LINE
  8
0
 62
     0
 10
138.799
 20
83.1702
 30
0.0
 11
138.556
 21
82.9261
 31
0.0
  0
LINE
  8
0
 62
     0
 10
138.556
 20
82.9261
 30
0.0
 11
138.399
 21
82.6202
 31
0.0
  0
LINE
  8
0
 62
     0
 10
138.399
 20
82.6202
 30
0.0
 11
138.345
 21
82.2798
 31
0.0
  0
LINE
  8
0
 62
     0
 10
138.345
 20
82.2798
 30
0.0
 11
138.399
 21
81.9408
 31
0.0
  0
LINE
  8
0
 62
     0
 10
138.399
 20
81.9408
 30
0.0
 11
138.556
 21
81.6335
 31
0.0
  0
LINE
  8
0
 62
     0
 10
138.556
 20
81.6335
 30
0.0
 11
138.799
 21
81.3911
 31
0.0
  0
LINE
  8
0
 62
     0
 10
138.799
 20
81.3911
 30
0.0
 11
139.106
 21
81.2352
 31
0.0
  0
LINE
  8
0
 62
     0
 10
139.106
 20
81.2352
 30
0.0
 11
139.445
 21
81.1802
 31
0.0
  0
LINE
  8
0
 62
     0
 10
139.445
 20
81.1802
 30
0.0
 11
139.785
 21
81.2352
 31
0.0
  0
LINE
  8
0
 62
     0
 10
139.785
 20
81.2352
 30
0.0
 11
140.091
 21
81.3911
 31
0.0
  0
LINE
  8
0
 62
     0
 10
140.091
 20
81.3911
 30
0.0
 11
140.335
 21
81.6335
 31
0.0
  0
LINE
  8
0
 62
     0
 10
140.335
 20
81.6335
 30
0.0
 11
140.492
 21
81.9408
 31
0.0
  0
LINE
  8
0
 62
     0
 10
140.492
 20
81.9408
 30
0.0
 11
140.546
 21
82.2798
 31
0.0
  0
LINE
  8
0
 62
     0
 10
140.546
 20
82.2798
 30
0.0
 11
140.492
 21
82.6202
 31
0.0
  0
LINE
  8
0
 62
     0
 10
140.492
 20
82.6202
 30
0.0
 11
140.335
 21
82.9261
 31
0.0
  0
LINE
  8
0
 62
     0
 10
140.335
 20
82.9261
 30
0.0
 11
140.091
 21
83.1702
 31
0.0
  0
LINE
  8
0
 62
     0
 10
140.091
 20
83.1702
 30
0.0
 11
139.785
 21
83.3272
 31
0.0
  0
LINE
  8
0
 62
     0
 10
139.785
 20
83.3272
 30
0.0
 11
139.445
 21
83.3797
 31
0.0
  0
LINE
  8
0
 62
     0
 10
139.445
 20
83.3797
 30
0.0
 11
139.106
 21
83.3272
 31
0.0
  0
LINE
  8
0
 62
     0
 10
1.75424
 20
83.3272
 30
0.0
 11
1.44832
 21
83.1702
 31
0.0
  0
LINE
  8
0
 62
     0
 10
1.44832
 20
83.1702
 30
0.0
 11
1.2044
 21
82.9261
 31
0.0
  0
LINE
  8
0
 62
     0
 10
1.2044
 20
82.9261
 30
0.0
 11
1.04731
 21
82.6202
 31
0.0
  0
LINE
  8
0
 62
     0
 10
1.04731
 20
82.6202
 30
0.0
 11
0.994943
 21
82.2798
 31
0.0
  0
LINE
  8
0
 62
     0
 10
0.994943
 20
82.2798
 30
0.0
 11
1.04731
 21
81.9408
 31
0.0
  0
LINE
  8
0
 62
     0
 10
1.04731
 20
81.9408
 30
0.0
 11
1.2044
 21
81.6335
 31
0.0
  0
LINE
  8
0
 62
     0
 10
1.2044
 20
81.6335
 30
0.0
 11
1.44832
 21
81.3911
 31
0.0
  0
LINE
  8
0
 62
     0
 10
1.44832
 20
81.3911
 30
0.0
 11
1.75424
 21
81.2352
 31
0.0
  0
LINE
  8
0
 62
     0
 10
1.75424
 20
81.2352
 30
0.0
 11
2.09462
 21
81.1802
 31
0.0
  0
LINE
  8
0
 62
     0
 10
2.09462
 20
81.1802
 30
0.0
 11
2.43362
 21
81.2352
 31
0.0
  0
LINE
  8
0
 62
     0
 10
2.43362
 20
81.2352
 30
0.0
 11
2.74092
 21
81.3911
 31
0.0
  0
LINE
  8
0
 62
     0
 10
2.74092
 20
81.3911
 30
0.0
 11
2.98345
 21
81.6335
 31
0.0
  0
LINE
  8
0
 62
     0
 10
2.98345
 20
81.6335
 30
0.0
 11
3.13917
 21
81.9408
 31
0.0
  0
LINE
  8
0
 62
     0
 10
3.13917
 20
81.9408
 30
0.0
 11
3.19429
 21
82.2798
 31
0.0
  0
LINE
  8
0
 62
     0
 10
3.19429
 20
82.2798
 30
0.0
 11
3.13917
 21
82.6202
 31
0.0
  0
LINE
  8
0
 62
     0
 10
3.13917
 20
82.6202
 30
0.0
 11
2.98345
 21
82.9261
 31
0.0
  0
LINE
  8
0
 62
     0
 10
2.98345
 20
82.9261
 30
0.0
 11
2.74092
 21
83.1702
 31
0.0
  0
LINE
  8
0
 62
     0
 10
2.74092
 20
83.1702
 30
0.0
 11
2.43362
 21
83.3272
 31
0.0
  0
LINE
  8
0
 62
     0
 10
2.43362
 20
83.3272
 30
0.0
 11
2.09462
 21
83.3797
 31
0.0
  0
LINE
  8
0
 62
     0
 10
2.09462
 20
83.3797
 30
0.0
 11
1.75424
 21
83.3272
 31
0.0
  0
ENDSEC
  0
EOF
